<svg width="20" height="20" viewBox="0 0 20 20" fill="none" xmlns="http://www.w3.org/2000/svg">
<g clip-path="url(#clip0_1_400)">
<g filter="url(#filter0_d_1_400)">
<path d="M11.4432 18.1417L11.8948 17.3784L10.8198 16.7417L10.3673 17.5051L11.4432 18.1417ZM8.10484 17.3784L8.5565 18.1417L9.6315 17.5051L9.18067 16.7417L8.10484 17.3784ZM10.3673 17.5051C10.3284 17.5674 10.2742 17.6188 10.2099 17.6545C10.1456 17.6901 10.0733 17.7088 9.99984 17.7088C9.92633 17.7088 9.85403 17.6901 9.78974 17.6545C9.72545 17.6188 9.67129 17.5674 9.63234 17.5051L8.5565 18.1417C9.20067 19.2309 10.7982 19.2309 11.4432 18.1417L10.3682 17.5051H10.3673ZM8.74984 2.29175H11.2498V1.04175H8.74984V2.29175ZM17.7082 8.75008V9.58341H18.9582V8.75008H17.7082ZM2.2915 9.58341V8.75008H1.0415V9.58341H2.2915ZM1.0415 9.58341C1.0415 10.5459 1.0415 11.2984 1.08317 11.9059C1.12484 12.5184 1.21067 13.0284 1.4065 13.5001L2.5615 13.0217C2.439 12.7284 2.36734 12.3701 2.32984 11.8209C2.2915 11.2659 2.2915 10.5626 2.2915 9.58341H1.0415ZM6.50234 15.2017C5.45567 15.1834 4.90734 15.1167 4.47734 14.9384L3.99984 16.0934C4.67067 16.3717 5.434 16.4342 6.48067 16.4526L6.50234 15.2017ZM1.4065 13.5001C1.64731 14.0815 2.00027 14.6097 2.44524 15.0547C2.8902 15.4996 3.41846 15.8526 3.99984 16.0934L4.47734 14.9384C3.60957 14.579 2.92096 13.8895 2.5615 13.0217L1.4065 13.5001ZM17.7082 9.58341C17.7082 10.5626 17.7082 11.2659 17.6698 11.8209C17.6323 12.3701 17.5607 12.7284 17.439 13.0217L18.5932 13.5001C18.789 13.0284 18.8748 12.5184 18.9173 11.9059C18.959 11.2984 18.9582 10.5459 18.9582 9.58341H17.7082ZM13.519 16.4509C14.5657 16.4334 15.329 16.3717 15.9998 16.0934L15.5215 14.9384C15.0923 15.1167 14.544 15.1834 13.4982 15.2017L13.519 16.4517V16.4509ZM17.439 13.0217C17.0795 13.8895 16.3901 14.579 15.5223 14.9384L15.9998 16.0934C16.5812 15.8526 17.1095 15.4996 17.5544 15.0547C17.9994 14.6097 18.3524 14.0815 18.5932 13.5001L17.439 13.0217ZM11.2498 2.29175C12.6257 2.29175 13.614 2.29175 14.3848 2.36591C15.1465 2.43841 15.6307 2.57675 16.0173 2.81342L16.6698 1.74758C16.054 1.37091 15.3557 1.20258 14.5032 1.12092C13.6598 1.04092 12.6015 1.04175 11.2498 1.04175V2.29175ZM18.9582 8.75008C18.9582 7.39841 18.9582 6.34092 18.8782 5.49675C18.7973 4.64425 18.629 3.94508 18.2523 3.33008L17.1857 3.98258C17.4232 4.36925 17.5615 4.85341 17.634 5.61591C17.7073 6.38591 17.7082 7.37425 17.7082 8.75008H18.9582ZM16.0165 2.81342C16.4933 3.10533 16.8943 3.50598 17.1865 3.98258L18.2523 3.33008C17.8571 2.68506 17.3149 2.14277 16.6698 1.74758L16.0173 2.81425L16.0165 2.81342ZM8.74984 1.04175C7.39817 1.04175 6.34067 1.04175 5.4965 1.12092C4.644 1.20258 3.94484 1.37091 3.32984 1.74758L3.98234 2.81425C4.369 2.57675 4.85317 2.43841 5.61567 2.36591C6.38567 2.29258 7.374 2.29175 8.74984 2.29175V1.04175ZM2.2915 8.75008C2.2915 7.37425 2.2915 6.38591 2.36567 5.61508C2.43817 4.85342 2.5765 4.36925 2.81317 3.98258L1.74734 3.33091C1.37067 3.94591 1.20234 4.64425 1.12067 5.49675C1.0415 6.34175 1.0415 7.39841 1.0415 8.75008H2.2915ZM3.32984 1.74758C2.68482 2.14277 2.14253 2.6859 1.74734 3.33091L2.814 3.98258C3.10578 3.50617 3.50613 3.10554 3.98234 2.81342L3.32984 1.74758ZM9.17984 16.7417C9.0115 16.4559 8.86317 16.2034 8.71817 16.0051C8.56903 15.7876 8.37529 15.6044 8.14984 15.4676L7.5215 16.5484C7.56067 16.5717 7.61484 16.6134 7.70817 16.7417C7.809 16.8801 7.92317 17.0717 8.10484 17.3784L9.17984 16.7417ZM6.48067 16.4509C6.84734 16.4576 7.07817 16.4626 7.25484 16.4817C7.41984 16.5001 7.484 16.5267 7.5215 16.5484L8.14984 15.4676C7.91651 15.3383 7.65823 15.2605 7.39234 15.2392C7.144 15.2117 6.84567 15.2076 6.50234 15.2017L6.48067 16.4526V16.4509ZM11.8948 17.3784C12.0765 17.0726 12.1907 16.8801 12.2915 16.7417C12.3848 16.6134 12.439 16.5717 12.4782 16.5484L11.8498 15.4676C11.6082 15.6092 11.4332 15.7967 11.2815 16.0051C11.1373 16.2034 10.9882 16.4551 10.819 16.7417L11.8948 17.3784ZM13.4982 15.2017C13.1548 15.2076 12.8557 15.2117 12.6073 15.2392C12.3482 15.2684 12.094 15.3259 11.8498 15.4676L12.4782 16.5484C12.5157 16.5267 12.5798 16.5001 12.7448 16.4817C12.9215 16.4626 13.1532 16.4567 13.5198 16.4509L13.4982 15.2009V15.2017Z" fill="#1C1C1C"/>
<path d="M6.6665 7.5H13.3332M6.6665 10.4167H11.2498" stroke="#1C1C1C" stroke-width="1.25" stroke-linecap="round"/>
</g>
</g>
<defs>
<filter id="filter0_d_1_400" x="-2.9585" y="1.04175" width="25.9165" height="25.917" filterUnits="userSpaceOnUse" color-interpolation-filters="sRGB">
<feFlood flood-opacity="0" result="BackgroundImageFix"/>
<feColorMatrix in="SourceAlpha" type="matrix" values="0 0 0 0 0 0 0 0 0 0 0 0 0 0 0 0 0 0 127 0" result="hardAlpha"/>
<feOffset dy="4"/>
<feGaussianBlur stdDeviation="2"/>
<feComposite in2="hardAlpha" operator="out"/>
<feColorMatrix type="matrix" values="0 0 0 0 0 0 0 0 0 0 0 0 0 0 0 0 0 0 0.25 0"/>
<feBlend mode="normal" in2="BackgroundImageFix" result="effect1_dropShadow_1_400"/>
<feBlend mode="normal" in="SourceGraphic" in2="effect1_dropShadow_1_400" result="shape"/>
</filter>
<clipPath id="clip0_1_400">
<rect width="20" height="20" fill="white"/>
</clipPath>
</defs>
</svg>
