<svg width="20" height="20" viewBox="0 0 20 20" fill="none" xmlns="http://www.w3.org/2000/svg">
<g clip-path="url(#clip0_1_643)">
<path d="M1.66699 10.1701C1.66699 8.26258 1.66699 7.30925 2.10033 6.51925C2.53199 5.72841 3.32283 5.23841 4.90366 4.25675L6.57033 3.22258C8.24116 2.18508 9.07699 1.66675 10.0003 1.66675C10.9237 1.66675 11.7587 2.18508 13.4303 3.22258L15.097 4.25675C16.6778 5.23841 17.4687 5.72841 17.9012 6.51925C18.3337 7.30925 18.3337 8.26258 18.3337 10.1692V11.4376C18.3337 14.6876 18.3337 16.3134 17.357 17.3234C16.3812 18.3334 14.8095 18.3334 11.667 18.3334H8.33366C5.19116 18.3334 3.61949 18.3334 2.64366 17.3234C1.66699 16.3134 1.66699 14.6884 1.66699 11.4376V10.1701Z" stroke="#1C1C1C" stroke-width="1.5625"/>
<path d="M10 12.5V15" stroke="#1C1C1C" stroke-width="1.5625" stroke-linecap="round"/>
</g>
<defs>
<clipPath id="clip0_1_643">
<rect width="20" height="20" fill="white"/>
</clipPath>
</defs>
</svg>
