<svg width="2031" height="395" viewBox="0 0 2031 395" fill="none" xmlns="http://www.w3.org/2000/svg">
<g clip-path="url(#clip0_209_6)">
<path d="M388.291 0C385.131 0 382.574 2.56317 382.574 5.72324V23.0071C382.574 25.4298 380.617 27.3961 378.196 27.3961L337.111 27.3961C334.677 27.3961 332.729 25.4298 332.729 23.0071V5.72324C332.729 2.56317 330.172 0 327.016 0C323.868 0 321.307 2.56317 321.307 5.72324V20.4263V33.1237V39.9266L72.6886 39.9266V33.1281V15.8442V5.72763C72.6886 2.55878 70.1276 0 66.98 0C63.8236 0 61.267 2.55878 61.267 5.72763L61.267 23.0071C61.267 25.4298 59.3101 27.3961 56.8849 27.3961L15.7906 27.3961C13.3785 27.3961 11.4129 25.4298 11.4129 23.0071L11.4129 5.72763C11.4129 2.55878 8.865 0 5.70424 0C2.55662 0 0 2.55878 0 5.72763L0 33.1237L0 87.9114L0 142.708L0 197.5L0 252.288L0 307.089L0 361.876L0 389.272C0 392.432 2.55662 395 5.70424 395C8.865 395 11.4129 392.432 11.4129 389.272L11.4129 371.989C11.4129 369.561 13.3785 367.6 15.7906 367.6H56.8892C59.3145 367.6 61.2714 369.561 61.2714 371.989L61.2714 389.272C61.2714 392.432 63.828 395 66.9844 395C70.132 395 72.693 392.432 72.693 389.272V361.876V357.584L321.307 357.584V361.876V389.272C321.307 392.437 323.868 394.996 327.016 394.996C330.172 394.996 332.729 392.437 332.729 389.272V371.989C332.729 369.566 334.677 367.6 337.111 367.6H378.201C380.622 367.6 382.578 369.566 382.578 371.989V389.272C382.578 392.437 385.135 394.996 388.296 394.996C391.443 394.996 394 392.437 394 389.272V361.876V307.089V252.297V197.504L394 142.708V87.9114V33.1193V5.72324C393.996 2.56317 391.439 0 388.291 0ZM61.2714 334.485V351.769C61.2714 354.191 59.3145 356.157 56.8892 356.157H15.7906C13.3785 356.157 11.4129 354.191 11.4129 351.769L11.4129 317.205C11.4129 314.783 13.3785 312.816 15.7906 312.816H56.8892C59.3145 312.816 61.2714 314.783 61.2714 317.205L61.2714 334.485ZM61.2714 296.976C61.2714 299.399 59.3145 301.365 56.8892 301.365H15.7906C13.3785 301.365 11.4129 299.395 11.4129 296.976L11.4129 262.413C11.4129 259.986 13.3785 258.024 15.7906 258.024H56.8892C59.3145 258.024 61.2714 259.99 61.2714 262.413L61.2714 296.976ZM61.2714 242.18C61.2714 244.607 59.3145 246.569 56.8892 246.569H15.7906C13.3785 246.569 11.4129 244.607 11.4129 242.18L11.4129 207.617C11.4129 205.194 13.3785 203.228 15.7906 203.228H56.8892C59.3145 203.228 61.2714 205.194 61.2714 207.617V242.18ZM61.2714 187.388C61.2714 189.811 59.3145 191.777 56.8892 191.777H15.7906C13.3785 191.777 11.4129 189.811 11.4129 187.388L11.4129 152.825C11.4129 150.402 13.3785 148.436 15.7906 148.436H56.8892C59.3145 148.436 61.2714 150.402 61.2714 152.825L61.2714 187.388ZM61.2714 132.591C61.2714 135.023 59.3145 136.98 56.8892 136.98H15.7906C13.3785 136.98 11.4129 135.023 11.4129 132.591L11.4129 98.028C11.4129 95.6053 13.3785 93.639 15.7906 93.639L56.8892 93.639C59.3145 93.639 61.2714 95.6097 61.2714 98.028L61.2714 132.591ZM61.2714 62.0734L61.2714 77.8036C61.2714 80.2263 59.3145 82.1926 56.8892 82.1926L15.7906 82.1926C13.3785 82.1926 11.4129 80.2263 11.4129 77.8036L11.4129 43.2359C11.4129 40.8132 13.3785 38.8469 15.7906 38.8469L56.8892 38.8469C59.3145 38.8469 61.2714 40.8132 61.2714 43.2359V62.0734ZM321.307 340.208V345.729L72.6886 345.729V340.208V334.485L321.307 334.485V340.208ZM321.307 56.3502V63.0302L72.6886 63.0302V56.3502V51.7813L321.307 51.7813V56.3502ZM382.574 351.769C382.574 354.196 380.617 356.157 378.196 356.157H337.111C334.677 356.157 332.729 354.196 332.729 351.769V334.485V317.201C332.729 314.774 334.677 312.812 337.111 312.812H378.201C380.622 312.812 382.578 314.774 382.578 317.201L382.574 351.769ZM382.574 296.972C382.574 299.399 380.617 301.361 378.196 301.361H337.111C334.677 301.361 332.729 299.395 332.729 296.972V262.409C332.729 259.986 334.677 258.02 337.111 258.02H378.201C380.622 258.02 382.578 259.99 382.578 262.409L382.574 296.972ZM382.574 242.184C382.574 244.607 380.617 246.573 378.196 246.573H337.111C334.677 246.573 332.729 244.607 332.729 242.184V207.621C332.729 205.194 334.677 203.232 337.111 203.232H378.201C380.622 203.232 382.578 205.194 382.578 207.621L382.574 242.184ZM382.574 187.383C382.574 189.815 380.617 191.772 378.196 191.772H337.111C334.677 191.772 332.729 189.815 332.729 187.383L332.729 152.82C332.729 150.397 334.677 148.431 337.111 148.431H378.201C380.622 148.431 382.578 150.397 382.578 152.82L382.574 187.383ZM382.574 132.596C382.574 135.018 380.617 136.985 378.196 136.985H337.111C334.677 136.985 332.729 135.018 332.729 132.596V98.028C332.729 95.6053 334.677 93.639 337.111 93.639H378.201C380.622 93.639 382.578 95.6097 382.578 98.028L382.574 132.596ZM382.574 77.7992C382.574 80.2263 380.617 82.1882 378.196 82.1882H337.111C334.677 82.1882 332.729 80.2263 332.729 77.7992V62.069V43.2359C332.729 40.8132 334.677 38.8469 337.111 38.8469L378.201 38.8469C380.622 38.8469 382.578 40.8132 382.578 43.2359L382.574 77.7992Z" fill="#C02C2C"/>
<g filter="url(#filter0_ddd_209_6)">
<path d="M130.122 140.329C130.113 140.856 128.831 193.651 128.831 211.277C128.831 228.899 130.113 281.698 130.131 282.229C130.201 284.661 131.422 286.943 133.423 288.317C135.428 289.695 138.006 290.028 140.283 289.23C159.458 282.422 178.181 274.114 196.423 264.528C201.48 261.873 206.497 259.121 211.474 256.264V256.26C222.283 250.04 232.899 243.33 243.309 236.145C251.991 230.15 260.562 223.904 268.937 217.25C270.824 215.758 271.896 213.432 271.809 211.035C271.73 208.613 270.509 206.357 268.525 204.987C266.004 203.241 263.373 201.643 260.834 199.931C255.038 196.03 249.211 192.176 243.309 188.428C226.993 178.065 210.244 168.388 193.197 159.267C176.006 150.077 158.573 141.352 140.808 133.517C138.466 132.499 135.804 132.723 133.664 134.075C131.514 135.444 130.201 137.775 130.122 140.329Z" fill="white"/>
</g>
<path d="M459 29.1378H509.495L551.134 110.438H552.83L594.469 29.1378H644.964L574.403 156.694V365.862H529.561V156.694L459 29.1378Z" fill="white"/>
<path d="M952.327 29.1378H997.452V295.019C997.452 309.338 994.061 321.805 987.278 332.419C980.495 343.033 971.011 351.26 958.827 357.101C946.643 362.942 932.449 365.862 916.246 365.862C899.98 365.862 885.754 362.942 873.57 357.101C861.386 351.26 851.903 343.033 845.12 332.419C838.4 321.805 835.04 309.338 835.04 295.019V29.1378H880.165V291.156C880.165 298.002 881.672 304.094 884.687 309.432C887.701 314.771 891.909 318.947 897.31 321.962C902.774 324.977 909.086 326.484 916.246 326.484C923.468 326.484 929.78 324.977 935.181 321.962C940.583 318.947 944.79 314.771 947.805 309.432C950.82 304.094 952.327 298.002 952.327 291.156V29.1378Z" fill="white"/>
<path d="M1007.93 65.9726V29.1378H1169.87V65.9726H1111.18V365.862H1066.62V65.9726H1007.93Z" fill="white"/>
<path d="M1563.35 365.862H1514.84L1580.31 29.1378H1640.04L1705.51 365.862H1657L1638.71 268.162L1632.24 233.588L1610.93 119.67H1609.42L1588.11 233.588L1581.64 268.162L1563.35 365.862Z" fill="white"/>
<path d="M1713.63 368.5V29.1378H1792.39C1806.9 29.1378 1819.4 31.7442 1829.88 36.9569C1840.37 42.1069 1848.41 49.4864 1854 59.0955C1859.65 68.6417 1862.48 79.9779 1862.48 93.104C1862.48 93.1306 1861.6 205.85 1861.6 205.877C1861.59 219.031 1858.7 230.278 1852.93 239.617C1847.21 248.912 1839.02 256.009 1828.34 260.908C1817.67 265.744 1804.95 268.162 1790.19 268.162H1739.69V232.363H1782.09C1789.31 232.363 1795.34 231.421 1800.17 229.537C1805.01 227.59 1809.31 225.492 1811.76 221.598C1813.99 218.079 1814.58 212.917 1814.82 207.758C1814.83 207.591 1814.84 207.423 1814.85 207.254C1814.86 206.866 1814.87 206.474 1814.87 206.077C1814.87 205.984 1815.75 93.1976 1815.75 93.104C1815.75 87.012 1814.5 81.9563 1811.98 77.9368C1809.54 73.8545 1805.86 70.8085 1800.96 68.7988C1796.13 66.7262 1790.1 65.6899 1782.87 65.6899H1758.76V368.5H1713.63ZM1820.24 246.683L1869.17 368.5H1819.71L1771.82 246.683H1820.24Z" fill="white"/>
<path d="M1868.9 65.9726V29.1378H2030.85V65.9726H1972.15V368.5H1927.59V65.9726H1868.9Z" fill="white"/>
<path fill-rule="evenodd" clip-rule="evenodd" d="M807.376 97.3434V126.838V265.524V295.019C807.376 309.338 803.985 321.805 797.202 332.419C790.419 343.033 780.935 351.26 768.751 357.101C756.567 362.942 742.373 365.862 726.17 365.862C709.904 365.862 695.678 362.942 683.494 357.101C671.31 351.26 661.827 343.033 655.044 332.419C648.324 321.805 644.964 309.338 644.964 295.019V265.524V126.838V97.3434C644.964 83.024 648.324 70.5573 655.044 59.9434C661.827 49.3294 671.31 41.102 683.494 35.2612C695.678 29.4204 709.904 26.5 726.17 26.5C742.373 26.5 756.567 29.4204 768.751 35.2612C780.935 41.102 790.419 49.3294 797.202 59.9434C803.985 70.5573 807.376 83.024 807.376 97.3434ZM690.089 126.838V265.524V291.156C690.089 298.002 691.596 304.094 694.611 309.432C697.625 314.771 701.833 318.947 707.234 321.962C712.698 324.977 719.01 326.484 726.17 326.484C733.392 326.484 739.704 324.977 745.105 321.962C750.507 318.947 754.715 314.771 757.729 309.432C760.744 304.094 762.251 298.002 762.251 291.156V265.524V126.838V101.206C762.251 94.3602 760.744 88.2681 757.729 82.9298C754.715 77.5914 750.507 73.4149 745.105 70.4003C739.704 67.3857 733.392 65.8784 726.17 65.8784C719.01 65.8784 712.698 67.3857 707.234 70.4003C701.833 73.4149 697.625 77.5914 694.611 82.9298C691.596 88.2681 690.089 94.3602 690.089 101.206V126.838Z" fill="white"/>
<path fill-rule="evenodd" clip-rule="evenodd" d="M1341.32 99.9811V129.476V268.162V297.657C1341.32 311.976 1337.93 324.443 1331.15 335.057C1324.36 345.671 1314.88 353.898 1302.7 359.739C1290.51 365.58 1276.32 368.5 1260.11 368.5C1243.85 368.5 1229.62 365.58 1217.44 359.739C1205.26 353.898 1195.77 345.671 1188.99 335.057C1182.27 324.443 1178.91 311.976 1178.91 297.657V268.162V129.476V99.9811C1178.91 85.6617 1182.27 73.1951 1188.99 62.5811C1195.77 51.9672 1205.26 43.7398 1217.44 37.899C1229.62 32.0581 1243.85 29.1378 1260.11 29.1378C1276.32 29.1378 1290.51 32.0581 1302.7 37.899C1314.88 43.7398 1324.36 51.9672 1331.15 62.5811C1337.93 73.1951 1341.32 85.6617 1341.32 99.9811ZM1224.03 129.476V268.162V293.794C1224.03 300.64 1225.54 306.732 1228.56 312.07C1231.57 317.409 1235.78 321.585 1241.18 324.6C1246.64 327.614 1252.96 329.122 1260.11 329.122C1267.34 329.122 1273.65 327.614 1279.05 324.6C1284.45 321.585 1288.66 317.409 1291.67 312.07C1294.69 306.732 1296.2 300.64 1296.2 293.794V268.162V129.476V103.844C1296.2 96.9979 1294.69 90.9059 1291.67 85.5675C1288.66 80.2292 1284.45 76.0527 1279.05 73.038C1273.65 70.0234 1267.34 68.5161 1260.11 68.5161C1252.96 68.5161 1246.64 70.0234 1241.18 73.038C1235.78 76.0527 1231.57 80.2292 1228.56 85.5675C1225.54 90.9059 1224.03 96.9979 1224.03 103.844V129.476Z" fill="white"/>
<path fill-rule="evenodd" clip-rule="evenodd" d="M1517.97 99.9811V129.476V268.162V297.657C1517.97 311.976 1514.58 324.443 1507.8 335.057C1501.01 345.671 1491.53 353.898 1479.34 359.739C1467.16 365.58 1452.97 368.5 1436.76 368.5C1420.5 368.5 1406.27 365.58 1394.09 359.739C1381.9 353.898 1372.42 345.671 1365.64 335.057C1358.92 324.443 1355.56 311.976 1355.56 297.657V268.162V129.476V99.9811C1355.56 85.6617 1358.92 73.1951 1365.64 62.5811C1372.42 51.9672 1381.9 43.7398 1394.09 37.899C1406.27 32.0581 1420.5 29.1378 1436.76 29.1378C1452.97 29.1378 1467.16 32.0581 1479.34 37.899C1491.53 43.7398 1501.01 51.9672 1507.8 62.5811C1514.58 73.1951 1517.97 85.6617 1517.97 99.9811ZM1400.68 129.476V268.162V293.794C1400.68 300.64 1402.19 306.732 1405.2 312.07C1408.22 317.409 1412.43 321.585 1417.83 324.6C1423.29 327.614 1429.6 329.122 1436.76 329.122C1443.99 329.122 1450.3 327.614 1455.7 324.6C1461.1 321.585 1465.31 317.409 1468.32 312.07C1471.34 306.732 1472.84 300.64 1472.84 293.794V268.162V129.476V103.844C1472.84 96.9979 1471.34 90.9059 1468.32 85.5675C1465.31 80.2292 1461.1 76.0527 1455.7 73.038C1450.3 70.0234 1443.99 68.5161 1436.76 68.5161C1429.6 68.5161 1423.29 70.0234 1417.83 73.038C1412.43 76.0527 1408.22 80.2292 1405.2 85.5675C1402.19 90.9059 1400.68 96.9979 1400.68 103.844V129.476Z" fill="white"/>
<path d="M1662.08 233.588H1632.24H1588.11H1557.7V268.162H1581.64H1638.71H1662.08V233.588Z" fill="white"/>
</g>
<defs>
<filter id="filter0_ddd_209_6" x="100.831" y="120.883" width="248.983" height="305.773" filterUnits="userSpaceOnUse" color-interpolation-filters="sRGB">
<feFlood flood-opacity="0" result="BackgroundImageFix"/>
<feColorMatrix in="SourceAlpha" type="matrix" values="0 0 0 0 0 0 0 0 0 0 0 0 0 0 0 0 0 0 127 0" result="hardAlpha"/>
<feOffset dx="3" dy="9"/>
<feGaussianBlur stdDeviation="10.5"/>
<feColorMatrix type="matrix" values="0 0 0 0 0.945098 0 0 0 0 0.168627 0 0 0 0 0.117647 0 0 0 0.3 0"/>
<feBlend mode="normal" in2="BackgroundImageFix" result="effect1_dropShadow_209_6"/>
<feColorMatrix in="SourceAlpha" type="matrix" values="0 0 0 0 0 0 0 0 0 0 0 0 0 0 0 0 0 0 127 0" result="hardAlpha"/>
<feOffset dx="11" dy="37"/>
<feGaussianBlur stdDeviation="19.5"/>
<feColorMatrix type="matrix" values="0 0 0 0 0.945098 0 0 0 0 0.168627 0 0 0 0 0.117647 0 0 0 0.34 0"/>
<feBlend mode="normal" in2="effect1_dropShadow_209_6" result="effect2_dropShadow_209_6"/>
<feColorMatrix in="SourceAlpha" type="matrix" values="0 0 0 0 0 0 0 0 0 0 0 0 0 0 0 0 0 0 127 0" result="hardAlpha"/>
<feOffset dx="25" dy="84"/>
<feGaussianBlur stdDeviation="26.5"/>
<feColorMatrix type="matrix" values="0 0 0 0 0 0 0 0 0 0 0 0 0 0 0 0 0 0 0.2 0"/>
<feBlend mode="normal" in2="effect2_dropShadow_209_6" result="effect3_dropShadow_209_6"/>
<feBlend mode="normal" in="SourceGraphic" in2="effect3_dropShadow_209_6" result="shape"/>
</filter>
<clipPath id="clip0_209_6">
<rect width="2030.85" height="395" fill="white"/>
</clipPath>
</defs>
</svg>
