<svg width="53" height="54" viewBox="0 0 53 54" fill="none" xmlns="http://www.w3.org/2000/svg">
<rect x="0.589844" y="0.671875" width="52.4102" height="52.4102" rx="26.2051" fill="url(#paint0_linear_68_15573)"/>
<path d="M39.3267 13.938C39.1196 13.938 38.9521 14.1059 38.9521 14.3129V15.4452C38.9521 15.604 38.8239 15.7328 38.6653 15.7328H35.9737C35.8142 15.7328 35.6866 15.604 35.6866 15.4452V14.3129C35.6866 14.1059 35.5191 13.938 35.3123 13.938C35.1061 13.938 34.9384 14.1059 34.9384 14.3129V15.2762V16.108V16.5537L18.6507 16.5537V16.1083V14.976V14.3132C18.6507 14.1056 18.4829 13.938 18.2767 13.938C18.0699 13.938 17.9024 14.1056 17.9024 14.3132V15.4452C17.9024 15.604 17.7742 15.7328 17.6154 15.7328H14.9232C14.7651 15.7328 14.6364 15.604 14.6364 15.4452V14.3132C14.6364 14.1056 14.4694 13.938 14.2624 13.938C14.0562 13.938 13.8887 14.1056 13.8887 14.3132V16.108L13.8887 19.6973V23.2872V26.8767V30.466L13.8887 34.0562V37.6455V39.4403C13.8887 39.6473 14.0562 39.8155 14.2624 39.8155C14.4694 39.8155 14.6364 39.6473 14.6364 39.4403V38.308C14.6364 38.149 14.7651 38.0204 14.9232 38.0204H17.6156C17.7745 38.0204 17.9027 38.149 17.9027 38.308V39.4403C17.9027 39.6473 18.0702 39.8155 18.277 39.8155C18.4832 39.8155 18.651 39.6473 18.651 39.4403V37.6455V37.3643H34.9384V37.6455V39.4403C34.9384 39.6476 35.1061 39.8152 35.3123 39.8152C35.5191 39.8152 35.6866 39.6476 35.6866 39.4403V38.308C35.6866 38.1492 35.8142 38.0204 35.9737 38.0204H38.6656C38.8242 38.0204 38.9524 38.1492 38.9524 38.308V39.4403C38.9524 39.6476 39.1199 39.8152 39.327 39.8152C39.5332 39.8152 39.7007 39.6476 39.7007 39.4403V37.6455V34.0562V30.4666V26.877V23.2872V19.6973V16.1077V14.3129C39.7004 14.1059 39.5329 13.938 39.3267 13.938ZM17.9027 35.851V36.9833C17.9027 37.142 17.7745 37.2708 17.6156 37.2708H14.9232C14.7651 37.2708 14.6364 37.142 14.6364 36.9833V34.719C14.6364 34.5602 14.7651 34.4314 14.9232 34.4314H17.6156C17.7745 34.4314 17.9027 34.5602 17.9027 34.719V35.851ZM17.9027 33.3937C17.9027 33.5524 17.7745 33.6812 17.6156 33.6812H14.9232C14.7651 33.6812 14.6364 33.5521 14.6364 33.3937V31.1294C14.6364 30.9704 14.7651 30.8418 14.9232 30.8418H17.6156C17.7745 30.8418 17.9027 30.9707 17.9027 31.1294V33.3937ZM17.9027 29.8038C17.9027 29.9629 17.7745 30.0914 17.6156 30.0914H14.9232C14.7651 30.0914 14.6364 29.9629 14.6364 29.8038V27.5395C14.6364 27.3808 14.7651 27.252 14.9232 27.252H17.6156C17.7745 27.252 17.9027 27.3808 17.9027 27.5395L17.9027 29.8038ZM17.9027 26.2143C17.9027 26.373 17.7745 26.5018 17.6156 26.5018H14.9232C14.7651 26.5018 14.6364 26.373 14.6364 26.2143V23.9499C14.6364 23.7912 14.7651 23.6624 14.9232 23.6624H17.6156C17.7745 23.6624 17.9027 23.7912 17.9027 23.9499V26.2143ZM17.9027 22.6244C17.9027 22.7837 17.7745 22.9119 17.6156 22.9119H14.9232C14.7651 22.9119 14.6364 22.7837 14.6364 22.6244V20.3601C14.6364 20.2013 14.7651 20.0725 14.9232 20.0725H17.6156C17.7745 20.0725 17.9027 20.2016 17.9027 20.3601V22.6244ZM17.9027 18.0046V19.0351C17.9027 19.1938 17.7745 19.3226 17.6156 19.3226H14.9232C14.7651 19.3226 14.6364 19.1938 14.6364 19.0351V16.7705C14.6364 16.6118 14.7651 16.483 14.9232 16.483H17.6156C17.7745 16.483 17.9027 16.6118 17.9027 16.7705V18.0046ZM34.9384 36.2259V36.5876H18.6507V36.2259V35.851H34.9384V36.2259ZM34.9384 17.6296V18.0673L18.6507 18.0673V17.6296V17.3303L34.9384 17.3303V17.6296ZM38.9521 36.9833C38.9521 37.1423 38.8239 37.2708 38.6653 37.2708H35.9737C35.8142 37.2708 35.6866 37.1423 35.6866 36.9833V35.851V34.7187C35.6866 34.5597 35.8142 34.4311 35.9737 34.4311H38.6656C38.8242 34.4311 38.9524 34.5597 38.9524 34.7187L38.9521 36.9833ZM38.9521 33.3934C38.9521 33.5524 38.8239 33.681 38.6653 33.681H35.9737C35.8142 33.681 35.6866 33.5521 35.6866 33.3934V31.1291C35.6866 30.9704 35.8142 30.8416 35.9737 30.8416H38.6656C38.8242 30.8416 38.9524 30.9707 38.9524 31.1291L38.9521 33.3934ZM38.9521 29.8041C38.9521 29.9629 38.8239 30.0917 38.6653 30.0917H35.9737C35.8142 30.0917 35.6866 29.9629 35.6866 29.8041V27.5398C35.6866 27.3808 35.8142 27.2523 35.9737 27.2523H38.6656C38.8242 27.2523 38.9524 27.3808 38.9524 27.5398L38.9521 29.8041ZM38.9521 26.214C38.9521 26.3733 38.8239 26.5015 38.6653 26.5015H35.9737C35.8142 26.5015 35.6866 26.3733 35.6866 26.214V23.9496C35.6866 23.7909 35.8142 23.6621 35.9737 23.6621H38.6656C38.8242 23.6621 38.9524 23.7909 38.9524 23.9496L38.9521 26.214ZM38.9521 22.6247C38.9521 22.7834 38.8239 22.9122 38.6653 22.9122H35.9737C35.8142 22.9122 35.6866 22.7834 35.6866 22.6247V20.3601C35.6866 20.2013 35.8142 20.0725 35.9737 20.0725H38.6656C38.8242 20.0725 38.9524 20.2016 38.9524 20.3601L38.9521 22.6247ZM38.9521 19.0348C38.9521 19.1938 38.8239 19.3224 38.6653 19.3224H35.9737C35.8142 19.3224 35.6866 19.1938 35.6866 19.0348V18.0043V16.7705C35.6866 16.6118 35.8142 16.483 35.9737 16.483H38.6656C38.8242 16.483 38.9524 16.6118 38.9524 16.7705L38.9521 19.0348Z" fill="url(#paint1_linear_68_15573)"/>
<g filter="url(#filter0_ddd_68_15573)">
<path d="M22.4127 23.1314C22.4122 23.1659 22.3281 26.6246 22.3281 27.7793C22.3281 28.9338 22.4122 32.3928 22.4133 32.4276C22.4179 32.5869 22.4979 32.7364 22.629 32.8264C22.7603 32.9167 22.9293 32.9386 23.0784 32.8862C24.3346 32.4403 25.5612 31.896 26.7563 31.268C27.0876 31.094 27.4162 30.9138 27.7423 30.7266V30.7263C28.4504 30.3188 29.1459 29.8792 29.8279 29.4085C30.3967 29.0157 30.9582 28.6066 31.5069 28.1707C31.6305 28.0729 31.7008 27.9205 31.695 27.7635C31.6899 27.6048 31.6098 27.457 31.4799 27.3673C31.3147 27.2529 31.1424 27.1482 30.976 27.0361C30.5963 26.7805 30.2146 26.528 29.8279 26.2824C28.759 25.6036 27.6617 24.9696 26.5449 24.3721C25.4187 23.77 24.2766 23.1983 23.1128 22.6851C22.9594 22.6184 22.785 22.6331 22.6448 22.7216C22.5039 22.8113 22.4179 22.964 22.4127 23.1314Z" fill="url(#paint2_linear_68_15573)"/>
</g>
<mask id="mask0_68_15573" style="mask-type:alpha" maskUnits="userSpaceOnUse" x="22" y="22" width="10" height="11">
<path d="M22.4127 23.1392C22.4122 23.1737 22.3281 26.6324 22.3281 27.7872C22.3281 28.9416 22.4122 32.4006 22.4133 32.4354C22.4179 32.5947 22.4979 32.7443 22.629 32.8342C22.7603 32.9245 22.9293 32.9464 23.0784 32.8941C24.3346 32.4481 25.5612 31.9038 26.7563 31.2758C27.0876 31.1019 27.4162 30.9216 27.7423 30.7344V30.7341C28.4504 30.3267 29.1459 29.887 29.8279 29.4163C30.3967 29.0236 30.9582 28.6144 31.5069 28.1785C31.6305 28.0807 31.7008 27.9283 31.695 27.7713C31.6899 27.6126 31.6098 27.4648 31.4799 27.3751C31.3147 27.2607 31.1424 27.156 30.976 27.0439C30.5963 26.7883 30.2146 26.5358 29.8279 26.2903C28.759 25.6114 27.6617 24.9774 26.5449 24.3799C25.4187 23.7778 24.2766 23.2062 23.1128 22.6929C22.9594 22.6262 22.785 22.6409 22.6448 22.7294C22.5039 22.8191 22.4179 22.9718 22.4127 23.1392Z" fill="url(#paint3_linear_68_15573)"/>
</mask>
<g mask="url(#mask0_68_15573)">
</g>
<g clip-path="url(#clip0_68_15573)">
<path d="M-41.5166 18.7172H-39.0627L-37.0391 23.6415H-36.9567L-34.9331 18.7172H-32.4792L-35.9083 25.8832V35.0362H-38.0875V25.8832L-41.5166 18.7172Z" fill="url(#paint4_linear_68_15573)"/>
<path d="M-17.5421 18.7172H-15.3492V31.6029C-15.3492 32.2968 -15.514 32.901 -15.8436 33.4154C-16.1732 33.9298 -16.6341 34.3286 -17.2262 34.6116C-17.8183 34.8947 -18.5081 35.0362 -19.2956 35.0362C-20.0861 35.0362 -20.7774 34.8947 -21.3695 34.6116C-21.9616 34.3286 -22.4225 33.9298 -22.7521 33.4154C-23.0787 32.901 -23.242 32.2968 -23.242 31.6029V18.7172H-21.049V31.4157C-21.049 31.7475 -20.9758 32.0427 -20.8293 32.3014C-20.6828 32.5601 -20.4783 32.7625 -20.2158 32.9086C-19.9503 33.0547 -19.6435 33.1278 -19.2956 33.1278C-18.9446 33.1278 -18.6378 33.0547 -18.3754 32.9086C-18.1129 32.7625 -17.9084 32.5601 -17.7619 32.3014C-17.6154 32.0427 -17.5421 31.7475 -17.5421 31.4157V18.7172Z" fill="url(#paint5_linear_68_15573)"/>
<path d="M-14.8401 20.5024V18.7172H-6.97013V20.5024H-9.82235V35.0362H-11.9878V20.5024H-14.8401Z" fill="url(#paint6_linear_68_15573)"/>
<path d="M12.1523 35.0362H9.79453L12.9764 18.7172H15.879L19.0608 35.0362H16.7031L15.8146 30.3013L15.5002 28.6257L14.4643 23.1048H14.3911L13.3551 28.6257L13.0408 30.3013L12.1523 35.0362Z" fill="url(#paint7_linear_68_15573)"/>
<path d="M19.4555 35.1641V18.7172H23.2829C23.9879 18.7172 24.5953 18.8435 25.105 19.0961C25.6147 19.3457 26.0054 19.7034 26.277 20.1691C26.5517 20.6317 26.689 21.1811 26.689 21.8173C26.689 21.8185 26.6462 27.2814 26.6462 27.2827C26.6456 27.9202 26.5052 28.4653 26.225 28.9179C25.9472 29.3684 25.5489 29.7123 25.0301 29.9497C24.5112 30.1841 23.8931 30.3013 23.1759 30.3013H20.722V28.5663H22.7822C23.1332 28.5663 23.4262 28.5207 23.6612 28.4294C23.8962 28.335 24.1051 28.2333 24.2241 28.0446C24.3327 27.8741 24.3611 27.6239 24.3731 27.3739C24.3735 27.3658 24.3739 27.3576 24.3742 27.3494C24.3748 27.3306 24.3752 27.3116 24.3753 27.2924C24.3754 27.2879 24.4183 21.8218 24.4183 21.8173C24.4183 21.522 24.3572 21.277 24.2351 21.0822C24.1161 20.8843 23.9375 20.7367 23.6995 20.6393C23.4645 20.5389 23.1714 20.4887 22.8204 20.4887H21.6484V35.1641H19.4555ZM24.6363 29.2603L27.0141 35.1641H24.6105L22.2831 29.2603H24.6363Z" fill="url(#paint8_linear_68_15573)"/>
<path d="M27.0013 20.5024V18.7172H34.8712V20.5024H32.019V35.1641H29.8535V20.5024H27.0013Z" fill="url(#paint9_linear_68_15573)"/>
<path fill-rule="evenodd" clip-rule="evenodd" d="M-24.5864 22.0227V23.4522V30.1734V31.6029C-24.5864 32.2968 -24.7512 32.901 -25.0808 33.4154C-25.4105 33.9298 -25.8713 34.3286 -26.4635 34.6116C-27.0556 34.8947 -27.7453 35.0362 -28.5328 35.0362C-29.3233 35.0362 -30.0146 34.8947 -30.6067 34.6116C-31.1988 34.3286 -31.6597 33.9298 -31.9893 33.4154C-32.3159 32.901 -32.4792 32.2968 -32.4792 31.6029V30.1734V23.4522V22.0227C-32.4792 21.3287 -32.3159 20.7246 -31.9893 20.2102C-31.6597 19.6958 -31.1988 19.297 -30.6067 19.014C-30.0146 18.7309 -29.3233 18.5894 -28.5328 18.5894C-27.7453 18.5894 -27.0556 18.7309 -26.4635 19.014C-25.8713 19.297 -25.4105 19.6958 -25.0808 20.2102C-24.7512 20.7246 -24.5864 21.3287 -24.5864 22.0227ZM-30.2863 23.4522V30.1734V31.4157C-30.2863 31.7475 -30.213 32.0427 -30.0665 32.3014C-29.92 32.5601 -29.7155 32.7625 -29.453 32.9086C-29.1875 33.0547 -28.8807 33.1278 -28.5328 33.1278C-28.1818 33.1278 -27.8751 33.0547 -27.6126 32.9086C-27.3501 32.7625 -27.1456 32.5601 -26.9991 32.3014C-26.8526 32.0427 -26.7793 31.7475 -26.7793 31.4157V30.1734V23.4522V22.2099C-26.7793 21.8781 -26.8526 21.5829 -26.9991 21.3242C-27.1456 21.0655 -27.3501 20.863 -27.6126 20.7169C-27.8751 20.5708 -28.1818 20.4978 -28.5328 20.4978C-28.8807 20.4978 -29.1875 20.5708 -29.453 20.7169C-29.7155 20.863 -29.92 21.0655 -30.0665 21.3242C-30.213 21.5829 -30.2863 21.8781 -30.2863 22.2099V23.4522Z" fill="url(#paint10_linear_68_15573)"/>
<path fill-rule="evenodd" clip-rule="evenodd" d="M1.36202 22.1506V23.58V30.3013V31.7307C1.36202 32.4247 1.1972 33.0289 0.867577 33.5433C0.537945 34.0577 0.0770645 34.4564 -0.515049 34.7395C-1.10716 35.0225 -1.79695 35.1641 -2.5844 35.1641C-3.3749 35.1641 -4.06621 35.0225 -4.65833 34.7395C-5.25044 34.4564 -5.71132 34.0577 -6.04095 33.5433C-6.36752 33.0289 -6.53082 32.4247 -6.53082 31.7307V30.3013V23.58V22.1506C-6.53082 21.4566 -6.36752 20.8524 -6.04095 20.338C-5.71132 19.8236 -5.25044 19.4249 -4.65833 19.1418C-4.06621 18.8587 -3.3749 18.7172 -2.5844 18.7172C-1.79695 18.7172 -1.10716 18.8587 -0.515049 19.1418C0.0770645 19.4249 0.537945 19.8236 0.867577 20.338C1.1972 20.8524 1.36202 21.4566 1.36202 22.1506ZM-4.33785 23.58V30.3013V31.5435C-4.33785 31.8753 -4.2646 32.1705 -4.1181 32.4293C-3.9716 32.688 -3.7671 32.8904 -3.50462 33.0365C-3.23908 33.1826 -2.93234 33.2556 -2.5844 33.2556C-2.2334 33.2556 -1.92666 33.1826 -1.66418 33.0365C-1.4017 32.8904 -1.1972 32.688 -1.0507 32.4293C-0.904194 32.1705 -0.830944 31.8753 -0.830944 31.5435V30.3013V23.58V22.3377C-0.830944 22.006 -0.904194 21.7107 -1.0507 21.452C-1.1972 21.1933 -1.4017 20.9909 -1.66418 20.8448C-1.92666 20.6987 -2.2334 20.6256 -2.5844 20.6256C-2.93234 20.6256 -3.23908 20.6987 -3.50462 20.8448C-3.7671 20.9909 -3.9716 21.1933 -4.1181 21.452C-4.2646 21.7107 -4.33785 22.006 -4.33785 22.3377V23.58Z" fill="url(#paint11_linear_68_15573)"/>
<path fill-rule="evenodd" clip-rule="evenodd" d="M9.94671 22.1506V23.58V30.3013V31.7307C9.94671 32.4247 9.78191 33.0289 9.45228 33.5433C9.12265 34.0577 8.66176 34.4564 8.06964 34.7395C7.47753 35.0225 6.78775 35.1641 6.0003 35.1641C5.20979 35.1641 4.51849 35.0225 3.92637 34.7395C3.33426 34.4564 2.87338 34.0577 2.54375 33.5433C2.21717 33.0289 2.05388 32.4247 2.05388 31.7307V30.3013V23.58V22.1506C2.05388 21.4566 2.21717 20.8524 2.54375 20.338C2.87338 19.8236 3.33426 19.4249 3.92637 19.1418C4.51849 18.8587 5.20979 18.7172 6.0003 18.7172C6.78775 18.7172 7.47753 18.8587 8.06964 19.1418C8.66176 19.4249 9.12265 19.8236 9.45228 20.338C9.78191 20.8524 9.94671 21.4566 9.94671 22.1506ZM4.24685 23.58V30.3013V31.5435C4.24685 31.8753 4.3201 32.1705 4.4666 32.4293C4.6131 32.688 4.81759 32.8904 5.08008 33.0365C5.34562 33.1826 5.65236 33.2556 6.0003 33.2556C6.3513 33.2556 6.65803 33.1826 6.92052 33.0365C7.183 32.8904 7.3875 32.688 7.534 32.4293C7.68051 32.1705 7.75376 31.8753 7.75376 31.5435V30.3013V23.58V22.3377C7.75376 22.006 7.68051 21.7107 7.534 21.452C7.3875 21.1933 7.183 20.9909 6.92052 20.8448C6.65803 20.6987 6.3513 20.6256 6.0003 20.6256C5.65236 20.6256 5.34562 20.6987 5.08008 20.8448C4.81759 20.9909 4.6131 21.1933 4.4666 21.452C4.3201 21.7107 4.24685 22.006 4.24685 22.3377V23.58Z" fill="url(#paint12_linear_68_15573)"/>
<path d="M16.9503 28.6257H15.5002H13.3551H11.8776V30.3013H13.0408H15.8146H16.9503V28.6257Z" fill="url(#paint13_linear_68_15573)"/>
</g>
<defs>
<filter id="filter0_ddd_68_15573" x="20.4938" y="21.8574" width="16.3115" height="20.0319" filterUnits="userSpaceOnUse" color-interpolation-filters="sRGB">
<feFlood flood-opacity="0" result="BackgroundImageFix"/>
<feColorMatrix in="SourceAlpha" type="matrix" values="0 0 0 0 0 0 0 0 0 0 0 0 0 0 0 0 0 0 127 0" result="hardAlpha"/>
<feOffset dx="0.196538" dy="0.589614"/>
<feGaussianBlur stdDeviation="0.687883"/>
<feColorMatrix type="matrix" values="0 0 0 0 0 0 0 0 0 0 0 0 0 0 0 0 0 0 0.3 0"/>
<feBlend mode="normal" in2="BackgroundImageFix" result="effect1_dropShadow_68_15573"/>
<feColorMatrix in="SourceAlpha" type="matrix" values="0 0 0 0 0 0 0 0 0 0 0 0 0 0 0 0 0 0 127 0" result="hardAlpha"/>
<feOffset dx="0.72064" dy="2.42397"/>
<feGaussianBlur stdDeviation="1.2775"/>
<feColorMatrix type="matrix" values="0 0 0 0 0 0 0 0 0 0 0 0 0 0 0 0 0 0 0.34 0"/>
<feBlend mode="normal" in2="effect1_dropShadow_68_15573" result="effect2_dropShadow_68_15573"/>
<feColorMatrix in="SourceAlpha" type="matrix" values="0 0 0 0 0 0 0 0 0 0 0 0 0 0 0 0 0 0 127 0" result="hardAlpha"/>
<feOffset dx="1.63782" dy="5.50307"/>
<feGaussianBlur stdDeviation="1.73609"/>
<feColorMatrix type="matrix" values="0 0 0 0 0 0 0 0 0 0 0 0 0 0 0 0 0 0 0.2 0"/>
<feBlend mode="normal" in2="effect2_dropShadow_68_15573" result="effect3_dropShadow_68_15573"/>
<feBlend mode="normal" in="SourceGraphic" in2="effect3_dropShadow_68_15573" result="shape"/>
</filter>
<linearGradient id="paint0_linear_68_15573" x1="0.0198978" y1="0.671881" x2="57.8574" y2="9.17593" gradientUnits="userSpaceOnUse">
<stop stop-color="#C02C2C"/>
<stop offset="1" stop-color="#A80A0A"/>
</linearGradient>
<linearGradient id="paint1_linear_68_15573" x1="14.2417" y1="13.2192" x2="40.2488" y2="14.5389" gradientUnits="userSpaceOnUse">
<stop stop-color="white"/>
<stop offset="0.9999" stop-color="white"/>
<stop offset="1" stop-color="white"/>
</linearGradient>
<linearGradient id="paint2_linear_68_15573" x1="22.4563" y1="22.3583" x2="29.2515" y2="23.122" gradientUnits="userSpaceOnUse">
<stop/>
<stop offset="1" stop-color="#656565"/>
</linearGradient>
<linearGradient id="paint3_linear_68_15573" x1="22.4563" y1="22.3661" x2="29.2515" y2="23.1298" gradientUnits="userSpaceOnUse">
<stop/>
<stop offset="1" stop-color="#656565"/>
</linearGradient>
<linearGradient id="paint4_linear_68_15573" x1="-40.4718" y1="18.129" x2="32.6709" y2="35.2775" gradientUnits="userSpaceOnUse">
<stop stop-color="#F12B1E"/>
<stop offset="1" stop-color="#FC3F3F"/>
</linearGradient>
<linearGradient id="paint5_linear_68_15573" x1="-40.4718" y1="18.129" x2="32.6709" y2="35.2775" gradientUnits="userSpaceOnUse">
<stop stop-color="#F12B1E"/>
<stop offset="1" stop-color="#FC3F3F"/>
</linearGradient>
<linearGradient id="paint6_linear_68_15573" x1="-40.4718" y1="18.129" x2="32.6709" y2="35.2775" gradientUnits="userSpaceOnUse">
<stop stop-color="#F12B1E"/>
<stop offset="1" stop-color="#FC3F3F"/>
</linearGradient>
<linearGradient id="paint7_linear_68_15573" x1="-40.4718" y1="18.129" x2="32.6709" y2="35.2775" gradientUnits="userSpaceOnUse">
<stop stop-color="#F12B1E"/>
<stop offset="1" stop-color="#FC3F3F"/>
</linearGradient>
<linearGradient id="paint8_linear_68_15573" x1="-40.4718" y1="18.129" x2="32.6709" y2="35.2775" gradientUnits="userSpaceOnUse">
<stop stop-color="#F12B1E"/>
<stop offset="1" stop-color="#FC3F3F"/>
</linearGradient>
<linearGradient id="paint9_linear_68_15573" x1="-40.4718" y1="18.129" x2="32.6709" y2="35.2775" gradientUnits="userSpaceOnUse">
<stop stop-color="#F12B1E"/>
<stop offset="1" stop-color="#FC3F3F"/>
</linearGradient>
<linearGradient id="paint10_linear_68_15573" x1="-40.4718" y1="18.129" x2="32.6709" y2="35.2775" gradientUnits="userSpaceOnUse">
<stop stop-color="#F12B1E"/>
<stop offset="1" stop-color="#FC3F3F"/>
</linearGradient>
<linearGradient id="paint11_linear_68_15573" x1="-40.4718" y1="18.129" x2="32.6709" y2="35.2775" gradientUnits="userSpaceOnUse">
<stop stop-color="#F12B1E"/>
<stop offset="1" stop-color="#FC3F3F"/>
</linearGradient>
<linearGradient id="paint12_linear_68_15573" x1="-40.4718" y1="18.129" x2="32.6709" y2="35.2775" gradientUnits="userSpaceOnUse">
<stop stop-color="#F12B1E"/>
<stop offset="1" stop-color="#FC3F3F"/>
</linearGradient>
<linearGradient id="paint13_linear_68_15573" x1="-40.4718" y1="18.129" x2="32.6709" y2="35.2775" gradientUnits="userSpaceOnUse">
<stop stop-color="#F12B1E"/>
<stop offset="1" stop-color="#FC3F3F"/>
</linearGradient>
<clipPath id="clip0_68_15573">
<rect width="20.833" height="16.5747" fill="white" transform="translate(18.8682 18.5894)"/>
</clipPath>
</defs>
</svg>
