<svg width="164" height="44" viewBox="0 0 164 44" fill="none" xmlns="http://www.w3.org/2000/svg">
<g style="mix-blend-mode:darken">
<path d="M39.3206 0C39.0006 0 38.7417 0.259561 38.7417 0.579568V2.32983C38.7417 2.57517 38.5435 2.77428 38.2984 2.77428L34.1378 2.77428C33.8913 2.77428 33.694 2.57517 33.694 2.32983V0.579568C33.694 0.259561 33.4351 0 33.1155 0C32.7968 0 32.5374 0.259561 32.5374 0.579568V2.06849V3.3543V4.0432L7.36087 4.0432V3.35474L7.36087 1.60448V0.580013C7.36087 0.259117 7.10153 0 6.78279 0C6.46315 0 6.20425 0.259117 6.20425 0.580013V2.32983C6.20425 2.57517 6.00609 2.77428 5.76049 2.77428L1.59905 2.77428C1.35478 2.77428 1.15573 2.57517 1.15573 2.32983L1.15573 0.580013C1.15573 0.259117 0.897722 0 0.577645 0C0.258898 0 0 0.259117 0 0.580013L0 3.3543L0 8.90242L0 14.4514L0 20L0 25.5481L0 31.0976L0 36.6457L0 39.42C0 39.74 0.258898 40 0.577645 40C0.897722 40 1.15573 39.74 1.15573 39.42L1.15573 37.6697C1.15573 37.4239 1.35478 37.2253 1.59905 37.2253H5.76093C6.00653 37.2253 6.2047 37.4239 6.2047 37.6697V39.42C6.2047 39.74 6.4636 40 6.78323 40C7.10197 40 7.36132 39.74 7.36132 39.42V36.6457V36.211L32.5374 36.211V36.6457V39.42C32.5374 39.7404 32.7968 39.9996 33.1155 39.9996C33.4351 39.9996 33.694 39.7404 33.694 39.42V37.6697C33.694 37.4244 33.8913 37.2253 34.1378 37.2253H38.2988C38.544 37.2253 38.7421 37.4244 38.7421 37.6697V39.42C38.7421 39.7404 39.001 39.9996 39.3211 39.9996C39.6398 39.9996 39.8987 39.7404 39.8987 39.42V36.6457V31.0976V25.549L39.8987 20.0004V14.4514V8.90242V3.35385V0.579568C39.8983 0.259561 39.6394 0 39.3206 0ZM6.2047 33.8719V35.6221C6.2047 35.8675 6.00653 36.0666 5.76093 36.0666H1.59905C1.35478 36.0666 1.15573 35.8675 1.15573 35.6221L1.15573 32.1221C1.15573 31.8767 1.35478 31.6776 1.59905 31.6776H5.76093C6.00653 31.6776 6.2047 31.8767 6.2047 32.1221V33.8719ZM6.2047 30.0736C6.2047 30.3189 6.00653 30.518 5.76093 30.518H1.59905C1.35478 30.518 1.15573 30.3185 1.15573 30.0736L1.15573 26.5735C1.15573 26.3277 1.35478 26.129 1.59905 26.129H5.76093C6.00653 26.129 6.2047 26.3281 6.2047 26.5735V30.0736ZM6.2047 24.5245C6.2047 24.7703 6.00653 24.969 5.76093 24.969H1.59905C1.35478 24.969 1.15573 24.7703 1.15573 24.5245L1.15573 21.0245C1.15573 20.7791 1.35478 20.58 1.59905 20.58H5.76093C6.00653 20.58 6.2047 20.7791 6.2047 21.0245V24.5245ZM6.2047 18.976C6.2047 19.2213 6.00653 19.4204 5.76093 19.4204H1.59905C1.35478 19.4204 1.15573 19.2213 1.15573 18.976L1.15573 15.4759C1.15573 15.2306 1.35478 15.0314 1.59905 15.0314L5.76093 15.0314C6.00653 15.0314 6.2047 15.2306 6.2047 15.4759V18.976ZM6.2047 13.427C6.2047 13.6732 6.00653 13.8714 5.76093 13.8714L1.59905 13.8714C1.35478 13.8714 1.15573 13.6732 1.15573 13.427L1.15573 9.92689C1.15573 9.68155 1.35478 9.48243 1.59905 9.48243L5.76093 9.48243C6.00653 9.48243 6.2047 9.68199 6.2047 9.92689V13.427ZM6.2047 6.28592V7.87884C6.2047 8.12418 6.00653 8.3233 5.76093 8.3233L1.59905 8.3233C1.35478 8.3233 1.15573 8.12418 1.15573 7.87884L1.15573 4.37832C1.15573 4.13298 1.35478 3.93387 1.59905 3.93387L5.76093 3.93387C6.00653 3.93387 6.2047 4.13298 6.2047 4.37832V6.28592ZM32.5374 34.4514V35.0106L7.36087 35.0106V34.4514V33.8719L32.5374 33.8719V34.4514ZM32.5374 5.70635V6.38281L7.36087 6.38281V5.70635V5.24367L32.5374 5.24367V5.70635ZM38.7417 35.6221C38.7417 35.8679 38.5435 36.0666 38.2984 36.0666H34.1378C33.8913 36.0666 33.694 35.8679 33.694 35.6221V33.8719V32.1216C33.694 31.8758 33.8913 31.6772 34.1378 31.6772H38.2988C38.544 31.6772 38.7421 31.8758 38.7421 32.1216L38.7417 35.6221ZM38.7417 30.0731C38.7417 30.3189 38.5435 30.5176 38.2984 30.5176H34.1378C33.8913 30.5176 33.694 30.3185 33.694 30.0731V26.573C33.694 26.3277 33.8913 26.1286 34.1378 26.1286H38.2988C38.544 26.1286 38.7421 26.3281 38.7421 26.573L38.7417 30.0731ZM38.7417 24.525C38.7417 24.7703 38.5435 24.9694 38.2984 24.9694H34.1378C33.8913 24.9694 33.694 24.7703 33.694 24.525L33.694 21.0249C33.694 20.7791 33.8913 20.5805 34.1378 20.5805H38.2988C38.544 20.5805 38.7421 20.7791 38.7421 21.0249L38.7417 24.525ZM38.7417 18.9755C38.7417 19.2218 38.5435 19.42 38.2984 19.42H34.1378C33.8913 19.42 33.694 19.2218 33.694 18.9755V15.4755C33.694 15.2301 33.8913 15.031 34.1378 15.031H38.2988C38.544 15.031 38.7421 15.2301 38.7421 15.4755L38.7417 18.9755ZM38.7417 13.4274C38.7417 13.6727 38.5435 13.8719 38.2984 13.8719H34.1378C33.8913 13.8719 33.694 13.6727 33.694 13.4274V9.92689C33.694 9.68155 33.8913 9.48243 34.1378 9.48243H38.2988C38.544 9.48243 38.7421 9.68199 38.7421 9.92689L38.7417 13.4274ZM38.7417 7.8784C38.7417 8.12418 38.5435 8.32285 38.2984 8.32285H34.1378C33.8913 8.32285 33.694 8.12418 33.694 7.8784V6.28547V4.37832C33.694 4.13298 33.8913 3.93387 34.1378 3.93387L38.2988 3.93387C38.544 3.93387 38.7421 4.13298 38.7421 4.37832L38.7417 7.8784Z" fill="url(#paint0_linear_1_591)"/>
<path d="M39.3206 0C39.0006 0 38.7417 0.259561 38.7417 0.579568V2.32983C38.7417 2.57517 38.5435 2.77428 38.2984 2.77428L34.1378 2.77428C33.8913 2.77428 33.694 2.57517 33.694 2.32983V0.579568C33.694 0.259561 33.4351 0 33.1155 0C32.7968 0 32.5374 0.259561 32.5374 0.579568V2.06849V3.3543V4.0432L7.36087 4.0432V3.35474L7.36087 1.60448V0.580013C7.36087 0.259117 7.10153 0 6.78279 0C6.46315 0 6.20425 0.259117 6.20425 0.580013V2.32983C6.20425 2.57517 6.00609 2.77428 5.76049 2.77428L1.59905 2.77428C1.35478 2.77428 1.15573 2.57517 1.15573 2.32983L1.15573 0.580013C1.15573 0.259117 0.897722 0 0.577645 0C0.258898 0 0 0.259117 0 0.580013L0 3.3543L0 8.90242L0 14.4514L0 20L0 25.5481L0 31.0976L0 36.6457L0 39.42C0 39.74 0.258898 40 0.577645 40C0.897722 40 1.15573 39.74 1.15573 39.42L1.15573 37.6697C1.15573 37.4239 1.35478 37.2253 1.59905 37.2253H5.76093C6.00653 37.2253 6.2047 37.4239 6.2047 37.6697V39.42C6.2047 39.74 6.4636 40 6.78323 40C7.10197 40 7.36132 39.74 7.36132 39.42V36.6457V36.211L32.5374 36.211V36.6457V39.42C32.5374 39.7404 32.7968 39.9996 33.1155 39.9996C33.4351 39.9996 33.694 39.7404 33.694 39.42V37.6697C33.694 37.4244 33.8913 37.2253 34.1378 37.2253H38.2988C38.544 37.2253 38.7421 37.4244 38.7421 37.6697V39.42C38.7421 39.7404 39.001 39.9996 39.3211 39.9996C39.6398 39.9996 39.8987 39.7404 39.8987 39.42V36.6457V31.0976V25.549L39.8987 20.0004V14.4514V8.90242V3.35385V0.579568C39.8983 0.259561 39.6394 0 39.3206 0ZM6.2047 33.8719V35.6221C6.2047 35.8675 6.00653 36.0666 5.76093 36.0666H1.59905C1.35478 36.0666 1.15573 35.8675 1.15573 35.6221L1.15573 32.1221C1.15573 31.8767 1.35478 31.6776 1.59905 31.6776H5.76093C6.00653 31.6776 6.2047 31.8767 6.2047 32.1221V33.8719ZM6.2047 30.0736C6.2047 30.3189 6.00653 30.518 5.76093 30.518H1.59905C1.35478 30.518 1.15573 30.3185 1.15573 30.0736L1.15573 26.5735C1.15573 26.3277 1.35478 26.129 1.59905 26.129H5.76093C6.00653 26.129 6.2047 26.3281 6.2047 26.5735V30.0736ZM6.2047 24.5245C6.2047 24.7703 6.00653 24.969 5.76093 24.969H1.59905C1.35478 24.969 1.15573 24.7703 1.15573 24.5245L1.15573 21.0245C1.15573 20.7791 1.35478 20.58 1.59905 20.58H5.76093C6.00653 20.58 6.2047 20.7791 6.2047 21.0245V24.5245ZM6.2047 18.976C6.2047 19.2213 6.00653 19.4204 5.76093 19.4204H1.59905C1.35478 19.4204 1.15573 19.2213 1.15573 18.976L1.15573 15.4759C1.15573 15.2306 1.35478 15.0314 1.59905 15.0314L5.76093 15.0314C6.00653 15.0314 6.2047 15.2306 6.2047 15.4759V18.976ZM6.2047 13.427C6.2047 13.6732 6.00653 13.8714 5.76093 13.8714L1.59905 13.8714C1.35478 13.8714 1.15573 13.6732 1.15573 13.427L1.15573 9.92689C1.15573 9.68155 1.35478 9.48243 1.59905 9.48243L5.76093 9.48243C6.00653 9.48243 6.2047 9.68199 6.2047 9.92689V13.427ZM6.2047 6.28592V7.87884C6.2047 8.12418 6.00653 8.3233 5.76093 8.3233L1.59905 8.3233C1.35478 8.3233 1.15573 8.12418 1.15573 7.87884L1.15573 4.37832C1.15573 4.13298 1.35478 3.93387 1.59905 3.93387L5.76093 3.93387C6.00653 3.93387 6.2047 4.13298 6.2047 4.37832V6.28592ZM32.5374 34.4514V35.0106L7.36087 35.0106V34.4514V33.8719L32.5374 33.8719V34.4514ZM32.5374 5.70635V6.38281L7.36087 6.38281V5.70635V5.24367L32.5374 5.24367V5.70635ZM38.7417 35.6221C38.7417 35.8679 38.5435 36.0666 38.2984 36.0666H34.1378C33.8913 36.0666 33.694 35.8679 33.694 35.6221V33.8719V32.1216C33.694 31.8758 33.8913 31.6772 34.1378 31.6772H38.2988C38.544 31.6772 38.7421 31.8758 38.7421 32.1216L38.7417 35.6221ZM38.7417 30.0731C38.7417 30.3189 38.5435 30.5176 38.2984 30.5176H34.1378C33.8913 30.5176 33.694 30.3185 33.694 30.0731V26.573C33.694 26.3277 33.8913 26.1286 34.1378 26.1286H38.2988C38.544 26.1286 38.7421 26.3281 38.7421 26.573L38.7417 30.0731ZM38.7417 24.525C38.7417 24.7703 38.5435 24.9694 38.2984 24.9694H34.1378C33.8913 24.9694 33.694 24.7703 33.694 24.525L33.694 21.0249C33.694 20.7791 33.8913 20.5805 34.1378 20.5805H38.2988C38.544 20.5805 38.7421 20.7791 38.7421 21.0249L38.7417 24.525ZM38.7417 18.9755C38.7417 19.2218 38.5435 19.42 38.2984 19.42H34.1378C33.8913 19.42 33.694 19.2218 33.694 18.9755V15.4755C33.694 15.2301 33.8913 15.031 34.1378 15.031H38.2988C38.544 15.031 38.7421 15.2301 38.7421 15.4755L38.7417 18.9755ZM38.7417 13.4274C38.7417 13.6727 38.5435 13.8719 38.2984 13.8719H34.1378C33.8913 13.8719 33.694 13.6727 33.694 13.4274V9.92689C33.694 9.68155 33.8913 9.48243 34.1378 9.48243H38.2988C38.544 9.48243 38.7421 9.68199 38.7421 9.92689L38.7417 13.4274ZM38.7417 7.8784C38.7417 8.12418 38.5435 8.32285 38.2984 8.32285H34.1378C33.8913 8.32285 33.694 8.12418 33.694 7.8784V6.28547V4.37832C33.694 4.13298 33.8913 3.93387 34.1378 3.93387L38.2988 3.93387C38.544 3.93387 38.7421 4.13298 38.7421 4.37832L38.7417 7.8784Z" fill="url(#paint1_linear_1_591)"/>
<g filter="url(#filter0_ddd_1_591)">
<path d="M13.1772 14.2101C13.1763 14.2634 13.0464 19.6097 13.0464 21.3947C13.0464 23.1792 13.1763 28.5259 13.1781 28.5797C13.1851 28.8259 13.3088 29.0571 13.5114 29.1962C13.7145 29.3357 13.9756 29.3695 14.2061 29.2886C16.1478 28.5993 18.0439 27.7579 19.8912 26.7872C20.4033 26.5183 20.9113 26.2397 21.4154 25.9503V25.9499C22.5099 25.3201 23.585 24.6405 24.6392 23.9129C25.5183 23.3058 26.3863 22.6734 27.2344 21.9996C27.4254 21.8485 27.5341 21.6129 27.5252 21.3702C27.5172 21.1249 27.3935 20.8964 27.1927 20.7578C26.9374 20.5809 26.6709 20.4191 26.4138 20.2458C25.8268 19.8506 25.2368 19.4604 24.6392 19.0808C22.9869 18.0315 21.2908 17.0515 19.5645 16.1279C17.8236 15.1972 16.0583 14.3136 14.2593 13.5203C14.0221 13.4172 13.7526 13.4398 13.5358 13.5767C13.3181 13.7154 13.1851 13.9514 13.1772 14.2101Z" fill="white"/>
</g>
<g clip-path="url(#clip0_1_591)">
<path d="M45.4712 7.38754H49.2643L52.3922 14.9992H52.5196L55.6475 7.38754H59.4407L54.1402 18.4644V32.6126H50.7717V18.4644L45.4712 7.38754Z" fill="white"/>
<path d="M45.4712 7.38754H49.2643L52.3922 14.9992H52.5196L55.6475 7.38754H59.4407L54.1402 18.4644V32.6126H50.7717V18.4644L45.4712 7.38754Z" fill="url(#paint2_linear_1_591)"/>
<path d="M82.5296 7.38754H85.9193V27.3055C85.9193 28.3782 85.6646 29.3121 85.155 30.1072C84.6455 30.9024 83.9331 31.5187 83.0179 31.9563C82.1026 32.3938 81.0364 32.6126 79.8192 32.6126C78.5973 32.6126 77.5287 32.3938 76.6134 31.9563C75.6982 31.5187 74.9858 30.9024 74.4763 30.1072C73.9714 29.3121 73.719 28.3782 73.719 27.3055V7.38754H77.1088V27.0162C77.1088 27.529 77.222 27.9853 77.4485 28.3853C77.6749 28.7852 77.991 29.0981 78.3968 29.3239C78.8072 29.5497 79.2814 29.6626 79.8192 29.6626C80.3617 29.6626 80.8359 29.5497 81.2416 29.3239C81.6473 29.0981 81.9634 28.7852 82.1899 28.3853C82.4163 27.9853 82.5296 27.529 82.5296 27.0162V7.38754Z" fill="white"/>
<path d="M82.5296 7.38754H85.9193V27.3055C85.9193 28.3782 85.6646 29.3121 85.155 30.1072C84.6455 30.9024 83.9331 31.5187 83.0179 31.9563C82.1026 32.3938 81.0364 32.6126 79.8192 32.6126C78.5973 32.6126 77.5287 32.3938 76.6134 31.9563C75.6982 31.5187 74.9858 30.9024 74.4763 30.1072C73.9714 29.3121 73.719 28.3782 73.719 27.3055V7.38754H77.1088V27.0162C77.1088 27.529 77.222 27.9853 77.4485 28.3853C77.6749 28.7852 77.991 29.0981 78.3968 29.3239C78.8072 29.5497 79.2814 29.6626 79.8192 29.6626C80.3617 29.6626 80.8359 29.5497 81.2416 29.3239C81.6473 29.0981 81.9634 28.7852 82.1899 28.3853C82.4163 27.9853 82.5296 27.529 82.5296 27.0162V7.38754Z" fill="url(#paint3_linear_1_591)"/>
<path d="M86.7063 10.147V7.38754H98.8712V10.147H94.4624V32.6126H91.1151V10.147H86.7063Z" fill="white"/>
<path d="M86.7063 10.147V7.38754H98.8712V10.147H94.4624V32.6126H91.1151V10.147H86.7063Z" fill="url(#paint4_linear_1_591)"/>
<path d="M128.43 32.6126H124.785L129.703 7.38754H134.19L139.108 32.6126H135.464L134.091 25.2936L133.605 22.7035L132.003 14.1696H131.89L130.289 22.7035L129.803 25.2936L128.43 32.6126Z" fill="white"/>
<path d="M128.43 32.6126H124.785L129.703 7.38754H134.19L139.108 32.6126H135.464L134.091 25.2936L133.605 22.7035L132.003 14.1696H131.89L130.289 22.7035L129.803 25.2936L128.43 32.6126Z" fill="url(#paint5_linear_1_591)"/>
<path d="M139.718 32.8102V7.38754H145.635C146.724 7.38754 147.663 7.5828 148.451 7.9733C149.239 8.3591 149.843 8.91192 150.263 9.63177C150.687 10.3469 150.9 11.1961 150.9 12.1795C150.9 12.1814 150.833 20.6256 150.833 20.6276C150.832 21.613 150.615 22.4556 150.182 23.1552C149.753 23.8515 149.137 24.3832 148.335 24.7501C147.533 25.1124 146.578 25.2936 145.469 25.2936H141.676V22.6118H144.861C145.403 22.6118 145.856 22.5412 146.219 22.4001C146.583 22.2542 146.905 22.097 147.089 21.8053C147.257 21.5417 147.301 21.155 147.32 20.7685C147.32 20.756 147.321 20.7434 147.321 20.7308C147.322 20.7017 147.323 20.6723 147.323 20.6426C147.323 20.6356 147.39 12.1865 147.39 12.1795C147.39 11.7231 147.295 11.3443 147.106 11.0432C146.922 10.7374 146.646 10.5092 146.278 10.3587C145.915 10.2034 145.462 10.1258 144.92 10.1258H143.108V32.8102H139.718ZM147.727 23.6845L151.402 32.8102H147.687L144.089 23.6845H147.727Z" fill="white"/>
<path d="M139.718 32.8102V7.38754H145.635C146.724 7.38754 147.663 7.5828 148.451 7.9733C149.239 8.3591 149.843 8.91192 150.263 9.63177C150.687 10.3469 150.9 11.1961 150.9 12.1795C150.9 12.1814 150.833 20.6256 150.833 20.6276C150.832 21.613 150.615 22.4556 150.182 23.1552C149.753 23.8515 149.137 24.3832 148.335 24.7501C147.533 25.1124 146.578 25.2936 145.469 25.2936H141.676V22.6118H144.861C145.403 22.6118 145.856 22.5412 146.219 22.4001C146.583 22.2542 146.905 22.097 147.089 21.8053C147.257 21.5417 147.301 21.155 147.32 20.7685C147.32 20.756 147.321 20.7434 147.321 20.7308C147.322 20.7017 147.323 20.6723 147.323 20.6426C147.323 20.6356 147.39 12.1865 147.39 12.1795C147.39 11.7231 147.295 11.3443 147.106 11.0432C146.922 10.7374 146.646 10.5092 146.278 10.3587C145.915 10.2034 145.462 10.1258 144.92 10.1258H143.108V32.8102H139.718ZM147.727 23.6845L151.402 32.8102H147.687L144.089 23.6845H147.727Z" fill="url(#paint6_linear_1_591)"/>
<path d="M151.382 10.147V7.38754H163.547V10.147H159.138V32.8102H155.791V10.147H151.382Z" fill="white"/>
<path d="M151.382 10.147V7.38754H163.547V10.147H159.138V32.8102H155.791V10.147H151.382Z" fill="url(#paint7_linear_1_591)"/>
<path fill-rule="evenodd" clip-rule="evenodd" d="M71.641 12.497V14.7066V25.096V27.3055C71.641 28.3782 71.3862 29.3121 70.8767 30.1073C70.3672 30.9024 69.6548 31.5187 68.7395 31.9563C67.8242 32.3938 66.758 32.6126 65.5408 32.6126C64.3189 32.6126 63.2503 32.3938 62.3351 31.9563C61.4198 31.5187 60.7074 30.9024 60.1979 30.1073C59.6931 29.3121 59.4407 28.3782 59.4407 27.3055V25.096V14.7066V12.497C59.4407 11.4243 59.6931 10.4904 60.1979 9.69528C60.7074 8.90016 61.4198 8.28382 62.3351 7.84627C63.2503 7.40872 64.3189 7.18994 65.5408 7.18994C66.758 7.18994 67.8242 7.40872 68.7395 7.84627C69.6548 8.28382 70.3672 8.90016 70.8767 9.69528C71.3862 10.4904 71.641 11.4243 71.641 12.497ZM62.8304 14.7066V25.096V27.0162C62.8304 27.529 62.9437 27.9854 63.1701 28.3853C63.3966 28.7852 63.7127 29.0981 64.1184 29.3239C64.5288 29.5497 65.003 29.6626 65.5408 29.6626C66.0834 29.6626 66.5575 29.5497 66.9632 29.3239C67.369 29.0981 67.6851 28.7852 67.9115 28.3853C68.138 27.9854 68.2512 27.529 68.2512 27.0162V25.096V14.7066V12.7864C68.2512 12.2736 68.138 11.8172 67.9115 11.4173C67.6851 11.0174 67.369 10.7045 66.9632 10.4786C66.5575 10.2528 66.0834 10.1399 65.5408 10.1399C65.003 10.1399 64.5288 10.2528 64.1184 10.4786C63.7127 10.7045 63.3966 11.0174 63.1701 11.4173C62.9437 11.8172 62.8304 12.2736 62.8304 12.7864V14.7066Z" fill="white"/>
<path fill-rule="evenodd" clip-rule="evenodd" d="M71.641 12.497V14.7066V25.096V27.3055C71.641 28.3782 71.3862 29.3121 70.8767 30.1073C70.3672 30.9024 69.6548 31.5187 68.7395 31.9563C67.8242 32.3938 66.758 32.6126 65.5408 32.6126C64.3189 32.6126 63.2503 32.3938 62.3351 31.9563C61.4198 31.5187 60.7074 30.9024 60.1979 30.1073C59.6931 29.3121 59.4407 28.3782 59.4407 27.3055V25.096V14.7066V12.497C59.4407 11.4243 59.6931 10.4904 60.1979 9.69528C60.7074 8.90016 61.4198 8.28382 62.3351 7.84627C63.2503 7.40872 64.3189 7.18994 65.5408 7.18994C66.758 7.18994 67.8242 7.40872 68.7395 7.84627C69.6548 8.28382 70.3672 8.90016 70.8767 9.69528C71.3862 10.4904 71.641 11.4243 71.641 12.497ZM62.8304 14.7066V25.096V27.0162C62.8304 27.529 62.9437 27.9854 63.1701 28.3853C63.3966 28.7852 63.7127 29.0981 64.1184 29.3239C64.5288 29.5497 65.003 29.6626 65.5408 29.6626C66.0834 29.6626 66.5575 29.5497 66.9632 29.3239C67.369 29.0981 67.6851 28.7852 67.9115 28.3853C68.138 27.9854 68.2512 27.529 68.2512 27.0162V25.096V14.7066V12.7864C68.2512 12.2736 68.138 11.8172 67.9115 11.4173C67.6851 11.0174 67.369 10.7045 66.9632 10.4786C66.5575 10.2528 66.0834 10.1399 65.5408 10.1399C65.003 10.1399 64.5288 10.2528 64.1184 10.4786C63.7127 10.7045 63.3966 11.0174 63.1701 11.4173C62.9437 11.8172 62.8304 12.2736 62.8304 12.7864V14.7066Z" fill="url(#paint8_linear_1_591)"/>
<path fill-rule="evenodd" clip-rule="evenodd" d="M111.751 12.6946V14.9042V25.2936V27.5031C111.751 28.5758 111.496 29.5097 110.986 30.3049C110.477 31.1 109.764 31.7163 108.849 32.1539C107.934 32.5914 106.868 32.8102 105.65 32.8102C104.428 32.8102 103.36 32.5914 102.445 32.1539C101.529 31.7163 100.817 31.1 100.307 30.3049C99.8026 29.5097 99.5502 28.5758 99.5502 27.5031V25.2936V14.9042V12.6946C99.5502 11.6219 99.8026 10.688 100.307 9.89289C100.817 9.09776 101.529 8.48142 102.445 8.04387C103.36 7.60632 104.428 7.38754 105.65 7.38754C106.868 7.38754 107.934 7.60632 108.849 8.04387C109.764 8.48142 110.477 9.09776 110.986 9.89289C111.496 10.688 111.751 11.6219 111.751 12.6946ZM102.94 14.9042V25.2936V27.2138C102.94 27.7266 103.053 28.183 103.28 28.5829C103.506 28.9828 103.822 29.2957 104.228 29.5215C104.638 29.7473 105.113 29.8602 105.65 29.8602C106.193 29.8602 106.667 29.7473 107.073 29.5215C107.479 29.2957 107.795 28.9828 108.021 28.5829C108.248 28.183 108.361 27.7266 108.361 27.2138V25.2936V14.9042V12.984C108.361 12.4712 108.248 12.0148 108.021 11.6149C107.795 11.215 107.479 10.9021 107.073 10.6762C106.667 10.4504 106.193 10.3375 105.65 10.3375C105.113 10.3375 104.638 10.4504 104.228 10.6762C103.822 10.9021 103.506 11.215 103.28 11.6149C103.053 12.0148 102.94 12.4712 102.94 12.984V14.9042Z" fill="white"/>
<path fill-rule="evenodd" clip-rule="evenodd" d="M111.751 12.6946V14.9042V25.2936V27.5031C111.751 28.5758 111.496 29.5097 110.986 30.3049C110.477 31.1 109.764 31.7163 108.849 32.1539C107.934 32.5914 106.868 32.8102 105.65 32.8102C104.428 32.8102 103.36 32.5914 102.445 32.1539C101.529 31.7163 100.817 31.1 100.307 30.3049C99.8026 29.5097 99.5502 28.5758 99.5502 27.5031V25.2936V14.9042V12.6946C99.5502 11.6219 99.8026 10.688 100.307 9.89289C100.817 9.09776 101.529 8.48142 102.445 8.04387C103.36 7.60632 104.428 7.38754 105.65 7.38754C106.868 7.38754 107.934 7.60632 108.849 8.04387C109.764 8.48142 110.477 9.09776 110.986 9.89289C111.496 10.688 111.751 11.6219 111.751 12.6946ZM102.94 14.9042V25.2936V27.2138C102.94 27.7266 103.053 28.183 103.28 28.5829C103.506 28.9828 103.822 29.2957 104.228 29.5215C104.638 29.7473 105.113 29.8602 105.65 29.8602C106.193 29.8602 106.667 29.7473 107.073 29.5215C107.479 29.2957 107.795 28.9828 108.021 28.5829C108.248 28.183 108.361 27.7266 108.361 27.2138V25.2936V14.9042V12.984C108.361 12.4712 108.248 12.0148 108.021 11.6149C107.795 11.215 107.479 10.9021 107.073 10.6762C106.667 10.4504 106.193 10.3375 105.65 10.3375C105.113 10.3375 104.638 10.4504 104.228 10.6762C103.822 10.9021 103.506 11.215 103.28 11.6149C103.053 12.0148 102.94 12.4712 102.94 12.984V14.9042Z" fill="url(#paint9_linear_1_591)"/>
<path fill-rule="evenodd" clip-rule="evenodd" d="M125.02 12.6946V14.9042V25.2936V27.5031C125.02 28.5758 124.766 29.5097 124.256 30.3049C123.746 31.1 123.034 31.7163 122.119 32.1539C121.204 32.5914 120.137 32.8102 118.92 32.8102C117.698 32.8102 116.63 32.5914 115.714 32.1539C114.799 31.7163 114.087 31.1 113.577 30.3049C113.072 29.5097 112.82 28.5758 112.82 27.5031V25.2936V14.9042V12.6946C112.82 11.6219 113.072 10.688 113.577 9.89289C114.087 9.09776 114.799 8.48142 115.714 8.04387C116.63 7.60632 117.698 7.38754 118.92 7.38754C120.137 7.38754 121.204 7.60632 122.119 8.04387C123.034 8.48142 123.746 9.09776 124.256 9.89289C124.766 10.688 125.02 11.6219 125.02 12.6946ZM116.21 14.9042V25.2936V27.2138C116.21 27.7266 116.323 28.183 116.549 28.5829C116.776 28.9828 117.092 29.2957 117.498 29.5215C117.908 29.7473 118.382 29.8602 118.92 29.8602C119.463 29.8602 119.937 29.7473 120.343 29.5215C120.748 29.2957 121.064 28.9828 121.291 28.5829C121.517 28.183 121.631 27.7266 121.631 27.2138V25.2936V14.9042V12.984C121.631 12.4712 121.517 12.0148 121.291 11.6149C121.064 11.215 120.748 10.9021 120.343 10.6762C119.937 10.4504 119.463 10.3375 118.92 10.3375C118.382 10.3375 117.908 10.4504 117.498 10.6762C117.092 10.9021 116.776 11.215 116.549 11.6149C116.323 12.0148 116.21 12.4712 116.21 12.984V14.9042Z" fill="white"/>
<path fill-rule="evenodd" clip-rule="evenodd" d="M125.02 12.6946V14.9042V25.2936V27.5031C125.02 28.5758 124.766 29.5097 124.256 30.3049C123.746 31.1 123.034 31.7163 122.119 32.1539C121.204 32.5914 120.137 32.8102 118.92 32.8102C117.698 32.8102 116.63 32.5914 115.714 32.1539C114.799 31.7163 114.087 31.1 113.577 30.3049C113.072 29.5097 112.82 28.5758 112.82 27.5031V25.2936V14.9042V12.6946C112.82 11.6219 113.072 10.688 113.577 9.89289C114.087 9.09776 114.799 8.48142 115.714 8.04387C116.63 7.60632 117.698 7.38754 118.92 7.38754C120.137 7.38754 121.204 7.60632 122.119 8.04387C123.034 8.48142 123.746 9.09776 124.256 9.89289C124.766 10.688 125.02 11.6219 125.02 12.6946ZM116.21 14.9042V25.2936V27.2138C116.21 27.7266 116.323 28.183 116.549 28.5829C116.776 28.9828 117.092 29.2957 117.498 29.5215C117.908 29.7473 118.382 29.8602 118.92 29.8602C119.463 29.8602 119.937 29.7473 120.343 29.5215C120.748 29.2957 121.064 28.9828 121.291 28.5829C121.517 28.183 121.631 27.7266 121.631 27.2138V25.2936V14.9042V12.984C121.631 12.4712 121.517 12.0148 121.291 11.6149C121.064 11.215 120.748 10.9021 120.343 10.6762C119.937 10.4504 119.463 10.3375 118.92 10.3375C118.382 10.3375 117.908 10.4504 117.498 10.6762C117.092 10.9021 116.776 11.215 116.549 11.6149C116.323 12.0148 116.21 12.4712 116.21 12.984V14.9042Z" fill="url(#paint10_linear_1_591)"/>
<path d="M135.846 22.7035H133.605H130.289H128.005V25.2936H129.803H134.091H135.846V22.7035Z" fill="white"/>
<path d="M135.846 22.7035H133.605H130.289H128.005V25.2936H129.803H134.091H135.846V22.7035Z" fill="url(#paint11_linear_1_591)"/>
</g>
</g>
<defs>
<filter id="filter0_ddd_1_591" x="10.2109" y="12.2409" width="25.2137" height="30.9646" filterUnits="userSpaceOnUse" color-interpolation-filters="sRGB">
<feFlood flood-opacity="0" result="BackgroundImageFix"/>
<feColorMatrix in="SourceAlpha" type="matrix" values="0 0 0 0 0 0 0 0 0 0 0 0 0 0 0 0 0 0 127 0" result="hardAlpha"/>
<feOffset dx="0.303797" dy="0.911393"/>
<feGaussianBlur stdDeviation="1.06329"/>
<feColorMatrix type="matrix" values="0 0 0 0 0 0 0 0 0 0 0 0 0 0 0 0 0 0 0.3 0"/>
<feBlend mode="normal" in2="BackgroundImageFix" result="effect1_dropShadow_1_591"/>
<feColorMatrix in="SourceAlpha" type="matrix" values="0 0 0 0 0 0 0 0 0 0 0 0 0 0 0 0 0 0 127 0" result="hardAlpha"/>
<feOffset dx="1.11392" dy="3.74684"/>
<feGaussianBlur stdDeviation="1.97468"/>
<feColorMatrix type="matrix" values="0 0 0 0 0 0 0 0 0 0 0 0 0 0 0 0 0 0 0.34 0"/>
<feBlend mode="normal" in2="effect1_dropShadow_1_591" result="effect2_dropShadow_1_591"/>
<feColorMatrix in="SourceAlpha" type="matrix" values="0 0 0 0 0 0 0 0 0 0 0 0 0 0 0 0 0 0 127 0" result="hardAlpha"/>
<feOffset dx="2.53165" dy="8.50633"/>
<feGaussianBlur stdDeviation="2.68354"/>
<feColorMatrix type="matrix" values="0 0 0 0 0 0 0 0 0 0 0 0 0 0 0 0 0 0 0.2 0"/>
<feBlend mode="normal" in2="effect2_dropShadow_1_591" result="effect3_dropShadow_1_591"/>
<feBlend mode="normal" in="SourceGraphic" in2="effect3_dropShadow_1_591" result="shape"/>
</filter>
<linearGradient id="paint0_linear_1_591" x1="0.545741" y1="-1.11109" x2="40.746" y2="0.928796" gradientUnits="userSpaceOnUse">
<stop stop-color="white"/>
<stop offset="0.9999" stop-color="white"/>
<stop offset="1" stop-color="white"/>
</linearGradient>
<linearGradient id="paint1_linear_1_591" x1="-0.433888" y1="4.57463e-06" x2="43.6012" y2="6.45826" gradientUnits="userSpaceOnUse">
<stop stop-color="#C02C2C"/>
<stop offset="1" stop-color="#A80A0A"/>
</linearGradient>
<linearGradient id="paint2_linear_1_591" x1="47.0863" y1="6.47828" x2="112.67" y2="43.7254" gradientUnits="userSpaceOnUse">
<stop/>
<stop offset="1" stop-color="#656565"/>
</linearGradient>
<linearGradient id="paint3_linear_1_591" x1="47.0863" y1="6.47828" x2="112.67" y2="43.7254" gradientUnits="userSpaceOnUse">
<stop/>
<stop offset="1" stop-color="#656565"/>
</linearGradient>
<linearGradient id="paint4_linear_1_591" x1="47.0863" y1="6.47828" x2="112.67" y2="43.7254" gradientUnits="userSpaceOnUse">
<stop/>
<stop offset="1" stop-color="#656565"/>
</linearGradient>
<linearGradient id="paint5_linear_1_591" x1="47.0863" y1="6.47828" x2="112.67" y2="43.7254" gradientUnits="userSpaceOnUse">
<stop/>
<stop offset="1" stop-color="#656565"/>
</linearGradient>
<linearGradient id="paint6_linear_1_591" x1="47.0863" y1="6.47828" x2="112.67" y2="43.7254" gradientUnits="userSpaceOnUse">
<stop/>
<stop offset="1" stop-color="#656565"/>
</linearGradient>
<linearGradient id="paint7_linear_1_591" x1="47.0863" y1="6.47828" x2="112.67" y2="43.7254" gradientUnits="userSpaceOnUse">
<stop/>
<stop offset="1" stop-color="#656565"/>
</linearGradient>
<linearGradient id="paint8_linear_1_591" x1="47.0863" y1="6.47828" x2="112.67" y2="43.7254" gradientUnits="userSpaceOnUse">
<stop/>
<stop offset="1" stop-color="#656565"/>
</linearGradient>
<linearGradient id="paint9_linear_1_591" x1="47.0863" y1="6.47828" x2="112.67" y2="43.7254" gradientUnits="userSpaceOnUse">
<stop/>
<stop offset="1" stop-color="#656565"/>
</linearGradient>
<linearGradient id="paint10_linear_1_591" x1="47.0863" y1="6.47828" x2="112.67" y2="43.7254" gradientUnits="userSpaceOnUse">
<stop/>
<stop offset="1" stop-color="#656565"/>
</linearGradient>
<linearGradient id="paint11_linear_1_591" x1="47.0863" y1="6.47828" x2="112.67" y2="43.7254" gradientUnits="userSpaceOnUse">
<stop/>
<stop offset="1" stop-color="#656565"/>
</linearGradient>
<clipPath id="clip0_1_591">
<rect width="118.076" height="25.6203" fill="white" transform="translate(45.4683 7.18994)"/>
</clipPath>
</defs>
</svg>
