<svg width="18" height="18" viewBox="0 0 18 18" fill="none" xmlns="http://www.w3.org/2000/svg">
<path d="M9 0.25C4.17473 0.25 0.25 4.17473 0.25 9C0.25 13.8253 4.17473 17.75 9 17.75C13.8253 17.75 17.75 13.8253 17.75 9C17.75 4.17473 13.8253 0.25 9 0.25ZM9.43855 1.48865C11.6817 1.61693 13.6569 2.72292 14.9486 4.38805C14.6077 4.3793 14.2684 4.3772 13.9305 4.38228C13.3438 4.392 12.7578 4.42305 12.1735 4.47538C12.066 4.25358 11.8983 4.06651 11.6894 3.9356C11.4806 3.80469 11.2392 3.73521 10.9927 3.73513C10.9317 3.73513 10.8707 3.7394 10.8102 3.7479C10.3992 2.96771 9.94114 2.21323 9.43855 1.48865ZM8.3749 1.50265C9.01138 2.37223 9.56315 3.25493 10.0353 4.14987C9.85966 4.33721 9.74284 4.57195 9.6993 4.82503C8.88293 4.9841 8.07514 5.18444 7.27905 5.42527C7.17999 5.29134 7.05634 5.17749 6.9147 5.0898C7.24493 3.91118 7.70692 2.71697 8.29755 1.50842C8.32327 1.50615 8.34918 1.50493 8.3749 1.50265ZM7.2479 1.6815C6.7544 2.76038 6.36065 3.83522 6.0677 4.90325C5.89049 4.92451 5.71947 4.98169 5.56511 5.0713C5.41075 5.16091 5.27629 5.28106 5.16995 5.4244C4.38036 5.17257 3.58061 4.95375 2.7728 4.7685C3.82712 3.21722 5.4233 2.11614 7.2479 1.6815ZM14.4444 5.25465C14.8105 5.25692 15.1784 5.26865 15.5482 5.2879C15.9901 6.06638 16.2887 6.91792 16.4296 7.80195C15.3709 7.97415 14.3401 8.21268 13.3367 8.51332C13.2283 8.37918 13.0947 8.2677 12.9432 8.18525C12.7918 8.10279 12.6256 8.05098 12.4541 8.03277C12.2855 7.36124 12.08 6.6995 11.8387 6.05055C12.0557 5.86743 12.2075 5.61886 12.2713 5.34215C12.9886 5.27985 13.7126 5.24992 14.4444 5.25465ZM2.3031 5.563C3.19595 5.75952 4.0671 5.9893 4.91288 6.25933C4.91293 6.26108 4.91299 6.26283 4.91305 6.26458C3.77415 6.73235 2.65433 7.28395 1.55323 7.91605C1.67101 7.09555 1.92442 6.30035 2.3031 5.563ZM9.84455 5.6827C9.958 5.88781 10.1243 6.0588 10.3262 6.1779C10.5281 6.29699 10.7582 6.35986 10.9925 6.35995C11.0043 6.35982 11.0161 6.35953 11.0279 6.35908C11.2567 6.97171 11.4516 7.59647 11.6117 8.23053C11.546 8.2722 11.4841 8.31963 11.4267 8.37227C10.1927 7.56796 8.88983 6.87441 7.5335 6.29975C7.53457 6.28483 7.53539 6.2699 7.53595 6.25495C8.29545 6.02558 9.06584 5.83459 9.84455 5.6827ZM5.23855 7.07237C5.33505 7.18212 5.44921 7.27498 5.5763 7.34713C5.3607 9.0343 5.40847 10.6979 5.73747 12.3252C4.96213 12.8922 4.21515 13.4969 3.49922 14.1373C2.2436 12.7935 1.475 10.989 1.475 9C1.475 8.99177 1.4757 8.9839 1.4757 8.97567C2.70893 8.23472 3.96245 7.59825 5.23855 7.07237ZM7.18472 7.1002C8.52164 7.66516 9.80452 8.3503 11.0176 9.14717C11.0082 9.21032 11.0034 9.27408 11.0032 9.33792C11.0032 9.34067 11.0032 9.34341 11.0032 9.34615C9.43522 9.99802 7.93828 10.8126 6.51063 11.7811C6.26388 10.3814 6.23763 8.95485 6.4219 7.5034C6.71435 7.45881 6.98316 7.31673 7.18472 7.1002ZM16.5168 8.67415C16.5213 8.78212 16.525 8.89062 16.525 8.99982C16.5261 10.0656 16.3005 11.1195 15.863 12.0914C15.1264 11.3071 14.339 10.5721 13.5059 9.89127C13.5862 9.71875 13.628 9.53083 13.6284 9.34055C14.5763 9.05808 15.541 8.83551 16.5168 8.67415ZM11.2986 10.1667C11.4875 10.3986 11.7499 10.559 12.0424 10.6214C12.2338 12.3554 12.1754 14.1329 11.8793 15.9554C10.9662 16.3325 9.98785 16.5261 9 16.525C8.74152 16.525 8.48602 16.512 8.23438 16.4867C7.53227 15.2505 7.0253 13.9894 6.7068 12.7055C8.1642 11.6864 9.69282 10.8371 11.2986 10.1667ZM12.9053 10.5272C13.8046 11.26 14.6491 12.0576 15.4319 12.9137C14.789 13.9686 13.8967 14.8494 12.8335 15.4785C13.0584 13.7981 13.0856 12.146 12.9053 10.5276V10.5272ZM5.95605 13.2493C6.2343 14.2806 6.627 15.2963 7.13783 16.2931C6.03172 16.0119 5.00447 15.4817 4.13447 14.743C4.72895 14.2145 5.33602 13.7157 5.95605 13.2493Z" fill="#1C1C1C"/>
</svg>
