<svg width="20" height="20" viewBox="0 0 20 20" fill="none" xmlns="http://www.w3.org/2000/svg">
<path d="M9.99991 17.619C14.2078 17.619 17.619 14.2078 17.619 9.99991C17.619 5.79202 14.2078 2.38086 9.99991 2.38086C5.79202 2.38086 2.38086 5.79202 2.38086 9.99991C2.38086 14.2078 5.79202 17.619 9.99991 17.619Z" stroke="#1C1C1C" stroke-width="0.952381" stroke-linecap="round" stroke-linejoin="round"/>
<path d="M9.99995 13.8095C12.1039 13.8095 13.8095 12.1039 13.8095 9.99995C13.8095 7.89601 12.1039 6.19043 9.99995 6.19043C7.89601 6.19043 6.19043 7.89601 6.19043 9.99995C6.19043 12.1039 7.89601 13.8095 9.99995 13.8095Z" stroke="#1C1C1C" stroke-width="0.952381" stroke-linecap="round" stroke-linejoin="round"/>
<path d="M12.857 7.14267L15.2379 4.76172M12.857 12.857L15.2379 15.2379M7.14267 12.857L4.76172 15.2379M7.14267 7.14267L4.76172 4.76172" stroke="#1C1C1C" stroke-width="0.952381" stroke-linecap="round" stroke-linejoin="round"/>
</svg>
