<svg width="20" height="20" viewBox="0 0 20 20" fill="none" xmlns="http://www.w3.org/2000/svg">
<path d="M14.2158 12.9342C14.6056 12.668 15.0628 12.5176 15.5346 12.5004C16.0063 12.4832 16.4733 12.5999 16.8815 12.837C17.2896 13.0741 17.6223 13.422 17.8411 13.8403C18.0598 14.2586 18.1556 14.7303 18.1174 15.2008C17.1176 15.5503 16.0556 15.6863 14.9999 15.6C14.9967 14.6555 14.7247 13.7306 14.2158 12.935C13.764 12.2265 13.1409 11.6434 12.404 11.2396C11.6671 10.8358 10.8402 10.6244 9.99995 10.625C9.15981 10.6246 8.33314 10.836 7.59639 11.2398C6.85964 11.6436 6.23662 12.2266 5.78495 12.935M14.9991 15.5992L14.9999 15.625C14.9999 15.8125 14.9899 15.9975 14.9691 16.18C13.4569 17.0476 11.7434 17.5028 9.99995 17.5C8.19161 17.5 6.49411 17.02 5.03078 16.18C5.00936 15.9871 4.99906 15.7932 4.99995 15.5992M4.99995 15.5992C3.94464 15.6886 2.8832 15.5531 1.88411 15.2017C1.84607 14.7313 1.94194 14.2598 2.16064 13.8416C2.37933 13.4234 2.71192 13.0757 3.11995 12.8386C3.52798 12.6015 3.99478 12.4847 4.46638 12.5018C4.93798 12.5188 5.39512 12.669 5.78495 12.935M4.99995 15.5992C5.00294 14.6548 5.2763 13.7307 5.78495 12.935M12.4999 5.625C12.4999 6.28804 12.2366 6.92393 11.7677 7.39277C11.2989 7.86161 10.663 8.125 9.99995 8.125C9.33691 8.125 8.70102 7.86161 8.23218 7.39277C7.76334 6.92393 7.49995 6.28804 7.49995 5.625C7.49995 4.96196 7.76334 4.32607 8.23218 3.85723C8.70102 3.38839 9.33691 3.125 9.99995 3.125C10.663 3.125 11.2989 3.38839 11.7677 3.85723C12.2366 4.32607 12.4999 4.96196 12.4999 5.625ZM17.4999 8.125C17.4999 8.37123 17.4514 8.61505 17.3572 8.84253C17.263 9.07002 17.1249 9.27672 16.9508 9.45083C16.7767 9.62494 16.57 9.76305 16.3425 9.85727C16.115 9.9515 15.8712 10 15.6249 10C15.3787 10 15.1349 9.9515 14.9074 9.85727C14.6799 9.76305 14.4732 9.62494 14.2991 9.45083C14.125 9.27672 13.9869 9.07002 13.8927 8.84253C13.7984 8.61505 13.7499 8.37123 13.7499 8.125C13.7499 7.62772 13.9475 7.15081 14.2991 6.79918C14.6508 6.44754 15.1277 6.25 15.6249 6.25C16.1222 6.25 16.5991 6.44754 16.9508 6.79918C17.3024 7.15081 17.4999 7.62772 17.4999 8.125ZM6.24995 8.125C6.24995 8.37123 6.20145 8.61505 6.10722 8.84253C6.01299 9.07002 5.87488 9.27672 5.70077 9.45083C5.52666 9.62494 5.31996 9.76305 5.09248 9.85727C4.86499 9.9515 4.62118 10 4.37495 10C4.12872 10 3.8849 9.9515 3.65742 9.85727C3.42993 9.76305 3.22323 9.62494 3.04912 9.45083C2.87501 9.27672 2.7369 9.07002 2.64267 8.84253C2.54845 8.61505 2.49995 8.37123 2.49995 8.125C2.49995 7.62772 2.69749 7.15081 3.04912 6.79918C3.40075 6.44754 3.87767 6.25 4.37495 6.25C4.87223 6.25 5.34914 6.44754 5.70077 6.79918C6.0524 7.15081 6.24995 7.62772 6.24995 8.125Z" stroke="#1C1C1C" stroke-width="1.25" stroke-linecap="round" stroke-linejoin="round"/>
</svg>
