<svg width="24" height="24" viewBox="0 0 24 24" fill="none" xmlns="http://www.w3.org/2000/svg">
<path d="M17.25 6.75024C17.25 8.14263 16.6969 9.47799 15.7123 10.4626C14.7277 11.4471 13.3924 12.0002 12 12.0002C10.6076 12.0002 9.27226 11.4471 8.28769 10.4626C7.30312 9.47799 6.75 8.14263 6.75 6.75024C6.75 5.35786 7.30312 4.0225 8.28769 3.03793C9.27226 2.05337 10.6076 1.50024 12 1.50024C13.3924 1.50024 14.7277 2.05337 15.7123 3.03793C16.6969 4.0225 17.25 5.35786 17.25 6.75024ZM15.75 6.75024C15.75 5.75568 15.3549 4.80186 14.6517 4.09859C13.9484 3.39533 12.9946 3.00024 12 3.00024C11.0054 3.00024 10.0516 3.39533 9.34835 4.09859C8.64509 4.80186 8.25 5.75568 8.25 6.75024C8.25 7.74481 8.64509 8.69863 9.34835 9.40189C10.0516 10.1052 11.0054 10.5002 12 10.5002C12.9946 10.5002 13.9484 10.1052 14.6517 9.40189C15.3549 8.69863 15.75 7.74481 15.75 6.75024ZM5.625 13.5002C4.92881 13.5002 4.26113 13.7768 3.76884 14.2691C3.27656 14.7614 3 15.4291 3 16.1252V16.5002C3 18.295 4.14225 19.813 5.76375 20.845C7.39425 21.883 9.6015 22.5002 12 22.5002C14.3985 22.5002 16.605 21.883 18.2362 20.845C19.8577 19.813 21 18.295 21 16.5002V16.1252C21 15.4291 20.7234 14.7614 20.2312 14.2691C19.7389 13.7768 19.0712 13.5002 18.375 13.5002H5.625ZM4.5 16.1252C4.5 15.8269 4.61853 15.5407 4.8295 15.3298C5.04048 15.1188 5.32663 15.0002 5.625 15.0002H18.375C18.6734 15.0002 18.9595 15.1188 19.1705 15.3298C19.3815 15.5407 19.5 15.8269 19.5 16.1252V16.5002C19.5 17.605 18.795 18.712 17.4307 19.5797C16.0755 20.4422 14.1578 21.0002 12 21.0002C9.84225 21.0002 7.9245 20.4422 6.56925 19.5797C5.20425 18.7127 4.5 17.6042 4.5 16.5002V16.1252Z" fill="#676767"/>
</svg>
