<svg width="20" height="20" viewBox="0 0 20 20" fill="none" xmlns="http://www.w3.org/2000/svg">
<path d="M7.49947 13.4749L4.6078 10.5833C4.45199 10.4275 4.24066 10.3399 4.0203 10.3399C3.79995 10.3399 3.58862 10.4275 3.4328 10.5833C3.27699 10.7391 3.18945 10.9504 3.18945 11.1708C3.18945 11.2799 3.21094 11.3879 3.2527 11.4887C3.29445 11.5895 3.35565 11.6811 3.4328 11.7583L6.91614 15.2416C7.24114 15.5666 7.76614 15.5666 8.09114 15.2416L16.9078 6.42494C17.0636 6.26913 17.1512 6.0578 17.1512 5.83744C17.1512 5.61709 17.0636 5.40576 16.9078 5.24994C16.752 5.09413 16.5407 5.00659 16.3203 5.00659C16.0999 5.00659 15.8886 5.09413 15.7328 5.24994L7.49947 13.4749Z" fill="#008F5C"/>
</svg>
