<svg width="24" height="24" viewBox="0 0 24 24" fill="none" xmlns="http://www.w3.org/2000/svg">
<path d="M8.9999 13.1999C9.47729 13.1999 9.93513 13.3895 10.2727 13.7271C10.6103 14.0647 10.7999 14.5225 10.7999 14.9999V19.7999C10.7999 20.2773 10.6103 20.7351 10.2727 21.0727C9.93513 21.4103 9.47729 21.5999 8.9999 21.5999H4.1999C3.72251 21.5999 3.26468 21.4103 2.92711 21.0727C2.58954 20.7351 2.3999 20.2773 2.3999 19.7999V14.9999C2.3999 14.5225 2.58954 14.0647 2.92711 13.7271C3.26468 13.3895 3.72251 13.1999 4.1999 13.1999H8.9999ZM19.7999 13.1999C20.2773 13.1999 20.7351 13.3895 21.0727 13.7271C21.4103 14.0647 21.5999 14.5225 21.5999 14.9999V19.7999C21.5999 20.2773 21.4103 20.7351 21.0727 21.0727C20.7351 21.4103 20.2773 21.5999 19.7999 21.5999H14.9999C14.5225 21.5999 14.0647 21.4103 13.7271 21.0727C13.3895 20.7351 13.1999 20.2773 13.1999 19.7999V14.9999C13.1999 14.5225 13.3895 14.0647 13.7271 13.7271C14.0647 13.3895 14.5225 13.1999 14.9999 13.1999H19.7999ZM8.9999 14.3999H4.1999C4.04077 14.3999 3.88816 14.4631 3.77564 14.5756C3.66312 14.6882 3.5999 14.8408 3.5999 14.9999V19.7999C3.5999 19.959 3.66312 20.1116 3.77564 20.2242C3.88816 20.3367 4.04077 20.3999 4.1999 20.3999H8.9999C9.15903 20.3999 9.31164 20.3367 9.42417 20.2242C9.53669 20.1116 9.5999 19.959 9.5999 19.7999V14.9999C9.5999 14.8408 9.53669 14.6882 9.42417 14.5756C9.31164 14.4631 9.15903 14.3999 8.9999 14.3999ZM19.7999 14.3999H14.9999C14.8408 14.3999 14.6882 14.4631 14.5756 14.5756C14.4631 14.6882 14.3999 14.8408 14.3999 14.9999V19.7999C14.3999 19.959 14.4631 20.1116 14.5756 20.2242C14.6882 20.3367 14.8408 20.3999 14.9999 20.3999H19.7999C19.959 20.3999 20.1116 20.3367 20.2242 20.2242C20.3367 20.1116 20.3999 19.959 20.3999 19.7999V14.9999C20.3999 14.8408 20.3367 14.6882 20.2242 14.5756C20.1116 14.4631 19.959 14.3999 19.7999 14.3999ZM8.9999 2.3999C9.47729 2.3999 9.93513 2.58954 10.2727 2.92711C10.6103 3.26468 10.7999 3.72251 10.7999 4.1999V8.9999C10.7999 9.47729 10.6103 9.93513 10.2727 10.2727C9.93513 10.6103 9.47729 10.7999 8.9999 10.7999H4.1999C3.72251 10.7999 3.26468 10.6103 2.92711 10.2727C2.58954 9.93513 2.3999 9.47729 2.3999 8.9999V4.1999C2.3999 3.72251 2.58954 3.26468 2.92711 2.92711C3.26468 2.58954 3.72251 2.3999 4.1999 2.3999H8.9999ZM19.7999 2.3999C20.2773 2.3999 20.7351 2.58954 21.0727 2.92711C21.4103 3.26468 21.5999 3.72251 21.5999 4.1999V8.9999C21.5999 9.47729 21.4103 9.93513 21.0727 10.2727C20.7351 10.6103 20.2773 10.7999 19.7999 10.7999H14.9999C14.5225 10.7999 14.0647 10.6103 13.7271 10.2727C13.3895 9.93513 13.1999 9.47729 13.1999 8.9999V4.1999C13.1999 3.72251 13.3895 3.26468 13.7271 2.92711C14.0647 2.58954 14.5225 2.3999 14.9999 2.3999H19.7999ZM8.9999 3.5999H4.1999C4.04077 3.5999 3.88816 3.66312 3.77564 3.77564C3.66312 3.88816 3.5999 4.04077 3.5999 4.1999V8.9999C3.5999 9.15903 3.66312 9.31164 3.77564 9.42417C3.88816 9.53669 4.04077 9.5999 4.1999 9.5999H8.9999C9.15903 9.5999 9.31164 9.53669 9.42417 9.42417C9.53669 9.31164 9.5999 9.15903 9.5999 8.9999V4.1999C9.5999 4.04077 9.53669 3.88816 9.42417 3.77564C9.31164 3.66312 9.15903 3.5999 8.9999 3.5999ZM19.7999 3.5999H14.9999C14.8408 3.5999 14.6882 3.66312 14.5756 3.77564C14.4631 3.88816 14.3999 4.04077 14.3999 4.1999V8.9999C14.3999 9.15903 14.4631 9.31164 14.5756 9.42417C14.6882 9.53669 14.8408 9.5999 14.9999 9.5999H19.7999C19.959 9.5999 20.1116 9.53669 20.2242 9.42417C20.3367 9.31164 20.3999 9.15903 20.3999 8.9999V4.1999C20.3999 4.04077 20.3367 3.88816 20.2242 3.77564C20.1116 3.66312 19.959 3.5999 19.7999 3.5999Z" fill="#399AF3"/>
</svg>
