<svg width="24" height="24" viewBox="0 0 24 24" fill="none" xmlns="http://www.w3.org/2000/svg">
<path d="M8.9999 13.2004C9.47729 13.2004 9.93513 13.39 10.2727 13.7276C10.6103 14.0652 10.7999 14.523 10.7999 15.0004V19.8004C10.7999 20.2778 10.6103 20.7356 10.2727 21.0732C9.93513 21.4107 9.47729 21.6004 8.9999 21.6004H4.1999C3.72251 21.6004 3.26468 21.4107 2.92711 21.0732C2.58954 20.7356 2.3999 20.2778 2.3999 19.8004V15.0004C2.3999 14.523 2.58954 14.0652 2.92711 13.7276C3.26468 13.39 3.72251 13.2004 4.1999 13.2004H8.9999ZM19.7999 13.2004C20.2773 13.2004 20.7351 13.39 21.0727 13.7276C21.4103 14.0652 21.5999 14.523 21.5999 15.0004V19.8004C21.5999 20.2778 21.4103 20.7356 21.0727 21.0732C20.7351 21.4107 20.2773 21.6004 19.7999 21.6004H14.9999C14.5225 21.6004 14.0647 21.4107 13.7271 21.0732C13.3895 20.7356 13.1999 20.2778 13.1999 19.8004V15.0004C13.1999 14.523 13.3895 14.0652 13.7271 13.7276C14.0647 13.39 14.5225 13.2004 14.9999 13.2004H19.7999ZM8.9999 14.4004H4.1999C4.04077 14.4004 3.88816 14.4636 3.77564 14.5761C3.66312 14.6886 3.5999 14.8413 3.5999 15.0004V19.8004C3.5999 19.9595 3.66312 20.1121 3.77564 20.2247C3.88816 20.3372 4.04077 20.4004 4.1999 20.4004H8.9999C9.15903 20.4004 9.31164 20.3372 9.42417 20.2247C9.53669 20.1121 9.5999 19.9595 9.5999 19.8004V15.0004C9.5999 14.8413 9.53669 14.6886 9.42417 14.5761C9.31164 14.4636 9.15903 14.4004 8.9999 14.4004ZM19.7999 14.4004H14.9999C14.8408 14.4004 14.6882 14.4636 14.5756 14.5761C14.4631 14.6886 14.3999 14.8413 14.3999 15.0004V19.8004C14.3999 19.9595 14.4631 20.1121 14.5756 20.2247C14.6882 20.3372 14.8408 20.4004 14.9999 20.4004H19.7999C19.959 20.4004 20.1116 20.3372 20.2242 20.2247C20.3367 20.1121 20.3999 19.9595 20.3999 19.8004V15.0004C20.3999 14.8413 20.3367 14.6886 20.2242 14.5761C20.1116 14.4636 19.959 14.4004 19.7999 14.4004ZM8.9999 2.40039C9.47729 2.40039 9.93513 2.59003 10.2727 2.9276C10.6103 3.26516 10.7999 3.723 10.7999 4.20039V9.00039C10.7999 9.47778 10.6103 9.93562 10.2727 10.2732C9.93513 10.6107 9.47729 10.8004 8.9999 10.8004H4.1999C3.72251 10.8004 3.26468 10.6107 2.92711 10.2732C2.58954 9.93562 2.3999 9.47778 2.3999 9.00039V4.20039C2.3999 3.723 2.58954 3.26516 2.92711 2.9276C3.26468 2.59003 3.72251 2.40039 4.1999 2.40039H8.9999ZM19.7999 2.40039C20.2773 2.40039 20.7351 2.59003 21.0727 2.9276C21.4103 3.26516 21.5999 3.723 21.5999 4.20039V9.00039C21.5999 9.47778 21.4103 9.93562 21.0727 10.2732C20.7351 10.6107 20.2773 10.8004 19.7999 10.8004H14.9999C14.5225 10.8004 14.0647 10.6107 13.7271 10.2732C13.3895 9.93562 13.1999 9.47778 13.1999 9.00039V4.20039C13.1999 3.723 13.3895 3.26516 13.7271 2.9276C14.0647 2.59003 14.5225 2.40039 14.9999 2.40039H19.7999ZM8.9999 3.60039H4.1999C4.04077 3.60039 3.88816 3.6636 3.77564 3.77613C3.66312 3.88865 3.5999 4.04126 3.5999 4.20039V9.00039C3.5999 9.15952 3.66312 9.31213 3.77564 9.42465C3.88816 9.53718 4.04077 9.60039 4.1999 9.60039H8.9999C9.15903 9.60039 9.31164 9.53718 9.42417 9.42465C9.53669 9.31213 9.5999 9.15952 9.5999 9.00039V4.20039C9.5999 4.04126 9.53669 3.88865 9.42417 3.77613C9.31164 3.6636 9.15903 3.60039 8.9999 3.60039ZM19.7999 3.60039H14.9999C14.8408 3.60039 14.6882 3.6636 14.5756 3.77613C14.4631 3.88865 14.3999 4.04126 14.3999 4.20039V9.00039C14.3999 9.15952 14.4631 9.31213 14.5756 9.42465C14.6882 9.53718 14.8408 9.60039 14.9999 9.60039H19.7999C19.959 9.60039 20.1116 9.53718 20.2242 9.42465C20.3367 9.31213 20.3999 9.15952 20.3999 9.00039V4.20039C20.3999 4.04126 20.3367 3.88865 20.2242 3.77613C20.1116 3.6636 19.959 3.60039 19.7999 3.60039Z" fill="#399AF3"/>
</svg>
