<svg width="20" height="20" viewBox="0 0 20 20" fill="none" xmlns="http://www.w3.org/2000/svg">
<path d="M17.8762 8.97567L12.9191 7.17255C12.8981 7.16499 12.879 7.15288 12.8632 7.13708C12.8474 7.12127 12.8353 7.10217 12.8277 7.08114L11.0246 2.12411C10.9481 1.91387 10.8088 1.73226 10.6256 1.60392C10.4424 1.47558 10.2241 1.40674 10.0004 1.40674C9.77667 1.40674 9.55838 1.47558 9.37515 1.60392C9.19192 1.73226 9.05262 1.91387 8.97616 2.12411L7.17304 7.08114C7.16548 7.10217 7.15337 7.12127 7.13757 7.13708C7.12176 7.15288 7.10266 7.16499 7.08163 7.17255L2.1246 8.97567C1.91436 9.05213 1.73275 9.19143 1.60441 9.37466C1.47607 9.5579 1.40723 9.77618 1.40723 9.99989C1.40723 10.2236 1.47607 10.4419 1.60441 10.6251C1.73275 10.8084 1.91436 10.9477 2.1246 11.0241L7.08163 12.8272C7.10266 12.8348 7.12176 12.8469 7.13757 12.8627C7.15337 12.8785 7.16548 12.8976 7.17304 12.9186L8.97616 17.8757C9.05262 18.0859 9.19192 18.2675 9.37515 18.3959C9.55838 18.5242 9.77667 18.593 10.0004 18.593C10.2241 18.593 10.4424 18.5242 10.6256 18.3959C10.8088 18.2675 10.9481 18.0859 11.0246 17.8757L12.8277 12.9186C12.8353 12.8976 12.8474 12.8785 12.8632 12.8627C12.879 12.8469 12.8981 12.8348 12.9191 12.8272L17.8762 11.0241C18.0864 10.9477 18.268 10.8084 18.3964 10.6251C18.5247 10.4419 18.5935 10.2236 18.5935 9.99989C18.5935 9.77618 18.5247 9.5579 18.3964 9.37466C18.268 9.19143 18.0864 9.05213 17.8762 8.97567ZM17.5558 10.1475L12.5988 11.9499C12.4491 12.0045 12.3132 12.0912 12.2005 12.2039C12.0878 12.3166 12.0011 12.4525 11.9465 12.6022L10.1441 17.5593C10.1321 17.5875 10.1121 17.6115 10.0865 17.6284C10.061 17.6453 10.031 17.6543 10.0004 17.6543C9.96974 17.6543 9.93978 17.6453 9.91422 17.6284C9.88866 17.6115 9.86864 17.5875 9.85663 17.5593L8.05429 12.6022C7.99964 12.4525 7.91294 12.3166 7.80026 12.2039C7.68758 12.0912 7.55163 12.0045 7.40194 11.9499L2.44491 10.1436C2.41673 10.1316 2.39269 10.1116 2.3758 10.086C2.3589 10.0605 2.3499 10.0305 2.3499 9.99989C2.3499 9.96925 2.3589 9.93929 2.3758 9.91373C2.39269 9.88818 2.41673 9.86815 2.44491 9.85614L7.40194 8.0538C7.55163 7.99915 7.68758 7.91245 7.80026 7.79977C7.91294 7.68709 7.99964 7.55115 8.05429 7.40145L9.85663 2.44442C9.86864 2.41624 9.88866 2.3922 9.91422 2.37531C9.93978 2.35842 9.96974 2.34941 10.0004 2.34941C10.031 2.34941 10.061 2.35842 10.0865 2.37531C10.1121 2.3922 10.1321 2.41624 10.1441 2.44442L11.9465 7.40145C12.0011 7.55115 12.0878 7.68709 12.2005 7.79977C12.3132 7.91245 12.4491 7.99915 12.5988 8.0538L17.5558 9.85614C17.584 9.86815 17.6081 9.88818 17.625 9.91373C17.6419 9.93929 17.6509 9.96925 17.6509 9.99989C17.6509 10.0305 17.6419 10.0605 17.625 10.086C17.6081 10.1116 17.584 10.1316 17.5558 10.1436V10.1475Z" fill="#1C1C1C" stroke="#1C1C1C" stroke-width="0.625"/>
</svg>
