<svg width="24" height="24" viewBox="0 0 24 24" fill="none" xmlns="http://www.w3.org/2000/svg">
<path d="M21.4507 10.7707L15.5023 8.60696C15.477 8.59789 15.4541 8.58336 15.4351 8.56439C15.4162 8.54543 15.4016 8.52251 15.3926 8.49727L13.2288 2.54883C13.1371 2.29655 12.9699 2.07861 12.75 1.9246C12.5302 1.7706 12.2682 1.68799 11.9998 1.68799C11.7313 1.68799 11.4694 1.7706 11.2495 1.9246C11.0296 2.07861 10.8625 2.29655 10.7707 2.54883L8.60696 8.49727C8.59789 8.52251 8.58336 8.54543 8.56439 8.56439C8.54543 8.58336 8.52251 8.59789 8.49727 8.60696L2.54883 10.7707C2.29655 10.8625 2.07861 11.0296 1.9246 11.2495C1.7706 11.4694 1.68799 11.7313 1.68799 11.9998C1.68799 12.2682 1.7706 12.5302 1.9246 12.75C2.07861 12.9699 2.29655 13.1371 2.54883 13.2288L8.49727 15.3926C8.52251 15.4016 8.54543 15.4162 8.56439 15.4351C8.58336 15.4541 8.59789 15.477 8.60696 15.5023L10.7707 21.4507C10.8625 21.703 11.0296 21.9209 11.2495 22.0749C11.4694 22.2289 11.7313 22.3116 11.9998 22.3116C12.2682 22.3116 12.5302 22.2289 12.75 22.0749C12.9699 21.9209 13.1371 21.703 13.2288 21.4507L15.3926 15.5023C15.4016 15.477 15.4162 15.4541 15.4351 15.4351C15.4541 15.4162 15.477 15.4016 15.5023 15.3926L21.4507 13.2288C21.703 13.1371 21.9209 12.9699 22.0749 12.75C22.2289 12.5302 22.3116 12.2682 22.3116 11.9998C22.3116 11.7313 22.2289 11.4694 22.0749 11.2495C21.9209 11.0296 21.703 10.8625 21.4507 10.7707ZM21.0663 12.177L15.1179 14.3398C14.9383 14.4053 14.7751 14.5094 14.6399 14.6446C14.5047 14.7798 14.4007 14.943 14.3351 15.1226L12.1723 21.071C12.1579 21.1048 12.1338 21.1337 12.1032 21.154C12.0725 21.1742 12.0365 21.185 11.9998 21.185C11.963 21.185 11.9271 21.1742 11.8964 21.154C11.8657 21.1337 11.8417 21.1048 11.8273 21.071L9.66446 15.1226C9.59888 14.943 9.49484 14.7798 9.35963 14.6446C9.22441 14.5094 9.06128 14.4053 8.88165 14.3398L2.93321 12.1723C2.89939 12.1579 2.87055 12.1338 2.85027 12.1032C2.83 12.0725 2.81919 12.0365 2.81919 11.9998C2.81919 11.963 2.83 11.9271 2.85027 11.8964C2.87055 11.8657 2.89939 11.8417 2.93321 11.8273L8.88165 9.66446C9.06128 9.59888 9.22441 9.49484 9.35963 9.35963C9.49484 9.22441 9.59888 9.06128 9.66446 8.88165L11.8273 2.93321C11.8417 2.89939 11.8657 2.87055 11.8964 2.85027C11.9271 2.83 11.963 2.81919 11.9998 2.81919C12.0365 2.81919 12.0725 2.83 12.1032 2.85027C12.1338 2.87055 12.1579 2.89939 12.1723 2.93321L14.3351 8.88165C14.4007 9.06128 14.5047 9.22441 14.6399 9.35963C14.7751 9.49484 14.9383 9.59888 15.1179 9.66446L21.0663 11.8273C21.1002 11.8417 21.129 11.8657 21.1493 11.8964C21.1695 11.9271 21.1803 11.963 21.1803 11.9998C21.1803 12.0365 21.1695 12.0725 21.1493 12.1032C21.129 12.1338 21.1002 12.1579 21.0663 12.1723V12.177Z" fill="#676767"/>
</svg>
