<svg width="20" height="20" viewBox="0 0 20 20" fill="none" xmlns="http://www.w3.org/2000/svg">
<g clip-path="url(#clip0_236_21377)">
<g filter="url(#filter0_d_236_21377)">
<path d="M11.4437 18.1415L11.8953 17.3782L10.8203 16.7415L10.3678 17.5048L11.4437 18.1415ZM8.10533 17.3782L8.55699 18.1415L9.63199 17.5048L9.18116 16.7415L8.10533 17.3782ZM10.3678 17.5048C10.3289 17.5672 10.2747 17.6186 10.2104 17.6542C10.1461 17.6899 10.0738 17.7086 10.0003 17.7086C9.92682 17.7086 9.85452 17.6899 9.79023 17.6542C9.72594 17.6186 9.67177 17.5672 9.63282 17.5048L8.55699 18.1415C9.20116 19.2307 10.7987 19.2307 11.4437 18.1415L10.3687 17.5048H10.3678ZM8.75033 2.2915H11.2503V1.0415H8.75033V2.2915ZM17.7087 8.74984V9.58317H18.9587V8.74984H17.7087ZM2.29199 9.58317V8.74984H1.04199V9.58317H2.29199ZM1.04199 9.58317C1.04199 10.5457 1.04199 11.2982 1.08366 11.9057C1.12533 12.5182 1.21116 13.0282 1.40699 13.4998L2.56199 13.0215C2.43949 12.7282 2.36783 12.3698 2.33033 11.8207C2.29199 11.2657 2.29199 10.5623 2.29199 9.58317H1.04199ZM6.50283 15.2015C5.45616 15.1832 4.90783 15.1165 4.47783 14.9382L4.00033 16.0932C4.67116 16.3715 5.43449 16.434 6.48116 16.4523L6.50283 15.2015ZM1.40699 13.4998C1.6478 14.0812 2.00076 14.6095 2.44572 15.0544C2.89069 15.4994 3.41895 15.8524 4.00033 16.0932L4.47783 14.9382C3.61006 14.5787 2.92145 13.8893 2.56199 13.0215L1.40699 13.4998ZM17.7087 9.58317C17.7087 10.5623 17.7087 11.2657 17.6703 11.8207C17.6328 12.3698 17.5612 12.7282 17.4395 13.0215L18.5937 13.4998C18.7895 13.0282 18.8753 12.5182 18.9178 11.9057C18.9595 11.2982 18.9587 10.5457 18.9587 9.58317H17.7087ZM13.5195 16.4507C14.5662 16.4332 15.3295 16.3715 16.0003 16.0932L15.522 14.9382C15.0928 15.1165 14.5445 15.1832 13.4987 15.2015L13.5195 16.4515V16.4507ZM17.4395 13.0215C17.08 13.8893 16.3906 14.5787 15.5228 14.9382L16.0003 16.0932C16.5817 15.8524 17.11 15.4994 17.5549 15.0544C17.9999 14.6095 18.3529 14.0812 18.5937 13.4998L17.4395 13.0215ZM11.2503 2.2915C12.6262 2.2915 13.6145 2.2915 14.3853 2.36567C15.147 2.43817 15.6312 2.5765 16.0178 2.81317L16.6703 1.74734C16.0545 1.37067 15.3562 1.20234 14.5037 1.12067C13.6603 1.04067 12.602 1.0415 11.2503 1.0415V2.2915ZM18.9587 8.74984C18.9587 7.39817 18.9587 6.34067 18.8787 5.4965C18.7978 4.644 18.6295 3.94484 18.2528 3.32984L17.1862 3.98234C17.4237 4.369 17.562 4.85317 17.6345 5.61567C17.7078 6.38567 17.7087 7.374 17.7087 8.74984H18.9587ZM16.017 2.81317C16.4938 3.10508 16.8947 3.50573 17.187 3.98234L18.2528 3.32984C17.8576 2.68482 17.3153 2.14253 16.6703 1.74734L16.0178 2.814L16.017 2.81317ZM8.75033 1.0415C7.39866 1.0415 6.34116 1.0415 5.49699 1.12067C4.64449 1.20234 3.94533 1.37067 3.33033 1.74734L3.98283 2.814C4.36949 2.5765 4.85366 2.43817 5.61616 2.36567C6.38616 2.29234 7.37449 2.2915 8.75033 2.2915V1.0415ZM2.29199 8.74984C2.29199 7.374 2.29199 6.38567 2.36616 5.61484C2.43866 4.85317 2.57699 4.369 2.81366 3.98234L1.74783 3.33067C1.37116 3.94567 1.20283 4.644 1.12116 5.4965C1.04199 6.3415 1.04199 7.39817 1.04199 8.74984H2.29199ZM3.33033 1.74734C2.68531 2.14253 2.14302 2.68565 1.74783 3.33067L2.81449 3.98234C3.10627 3.50592 3.50662 3.10529 3.98283 2.81317L3.33033 1.74734ZM9.18033 16.7415C9.01199 16.4557 8.86366 16.2032 8.71866 16.0048C8.56952 15.7874 8.37578 15.6041 8.15033 15.4673L7.52199 16.5482C7.56116 16.5715 7.61533 16.6132 7.70866 16.7415C7.80949 16.8798 7.92366 17.0715 8.10533 17.3782L9.18033 16.7415ZM6.48116 16.4507C6.84783 16.4573 7.07866 16.4623 7.25533 16.4815C7.42033 16.4998 7.48449 16.5265 7.52199 16.5482L8.15033 15.4673C7.917 15.3381 7.65872 15.2602 7.39283 15.239C7.14449 15.2115 6.84616 15.2073 6.50283 15.2015L6.48116 16.4523V16.4507ZM11.8953 17.3782C12.077 17.0723 12.1912 16.8798 12.292 16.7415C12.3853 16.6132 12.4395 16.5715 12.4787 16.5482L11.8503 15.4673C11.6087 15.609 11.4337 15.7965 11.282 16.0048C11.1378 16.2032 10.9887 16.4548 10.8195 16.7415L11.8953 17.3782ZM13.4987 15.2015C13.1553 15.2073 12.8562 15.2115 12.6078 15.239C12.3487 15.2682 12.0945 15.3257 11.8503 15.4673L12.4787 16.5482C12.5162 16.5265 12.5803 16.4998 12.7453 16.4815C12.922 16.4623 13.1537 16.4565 13.5203 16.4507L13.4987 15.2007V15.2015Z" fill="#1C1C1C"/>
<path d="M6.66699 7.5H13.3337M6.66699 10.4167H11.2503" stroke="#1C1C1C" stroke-width="1.25" stroke-linecap="round"/>
</g>
</g>
<defs>
<filter id="filter0_d_236_21377" x="-2.95801" y="1.0415" width="25.917" height="25.917" filterUnits="userSpaceOnUse" color-interpolation-filters="sRGB">
<feFlood flood-opacity="0" result="BackgroundImageFix"/>
<feColorMatrix in="SourceAlpha" type="matrix" values="0 0 0 0 0 0 0 0 0 0 0 0 0 0 0 0 0 0 127 0" result="hardAlpha"/>
<feOffset dy="4"/>
<feGaussianBlur stdDeviation="2"/>
<feComposite in2="hardAlpha" operator="out"/>
<feColorMatrix type="matrix" values="0 0 0 0 0 0 0 0 0 0 0 0 0 0 0 0 0 0 0.25 0"/>
<feBlend mode="normal" in2="BackgroundImageFix" result="effect1_dropShadow_236_21377"/>
<feBlend mode="normal" in="SourceGraphic" in2="effect1_dropShadow_236_21377" result="shape"/>
</filter>
<clipPath id="clip0_236_21377">
<rect width="20" height="20" fill="white"/>
</clipPath>
</defs>
</svg>
