<svg width="24" height="25" viewBox="0 0 24 25" fill="none" xmlns="http://www.w3.org/2000/svg">
<path d="M18.3 6.21022C18.2075 6.11752 18.0976 6.04397 17.9766 5.99379C17.8557 5.94361 17.726 5.91778 17.595 5.91778C17.464 5.91778 17.3344 5.94361 17.2134 5.99379C17.0924 6.04397 16.9825 6.11752 16.89 6.21022L12 11.0902L7.11 6.20022C7.01742 6.10764 6.90751 6.0342 6.78655 5.9841C6.66558 5.93399 6.53593 5.9082 6.405 5.9082C6.27407 5.9082 6.14442 5.93399 6.02346 5.9841C5.90249 6.0342 5.79258 6.10764 5.7 6.20022C5.60742 6.29281 5.53398 6.40272 5.48388 6.52368C5.43377 6.64464 5.40798 6.77429 5.40798 6.90522C5.40798 7.03615 5.43377 7.1658 5.48388 7.28677C5.53398 7.40773 5.60742 7.51764 5.7 7.61022L10.59 12.5002L5.7 17.3902C5.60742 17.4828 5.53398 17.5927 5.48388 17.7137C5.43377 17.8346 5.40798 17.9643 5.40798 18.0952C5.40798 18.2262 5.43377 18.3558 5.48388 18.4768C5.53398 18.5977 5.60742 18.7076 5.7 18.8002C5.79258 18.8928 5.90249 18.9662 6.02346 19.0163C6.14442 19.0665 6.27407 19.0922 6.405 19.0922C6.53593 19.0922 6.66558 19.0665 6.78655 19.0163C6.90751 18.9662 7.01742 18.8928 7.11 18.8002L12 13.9102L16.89 18.8002C16.9826 18.8928 17.0925 18.9662 17.2135 19.0163C17.3344 19.0665 17.4641 19.0922 17.595 19.0922C17.7259 19.0922 17.8556 19.0665 17.9765 19.0163C18.0975 18.9662 18.2074 18.8928 18.3 18.8002C18.3926 18.7076 18.466 18.5977 18.5161 18.4768C18.5662 18.3558 18.592 18.2262 18.592 18.0952C18.592 17.9643 18.5662 17.8346 18.5161 17.7137C18.466 17.5927 18.3926 17.4828 18.3 17.3902L13.41 12.5002L18.3 7.61022C18.68 7.23022 18.68 6.59022 18.3 6.21022Z" fill="#484C52"/>
</svg>
