<svg width="32" height="32" viewBox="0 0 32 32" fill="none" xmlns="http://www.w3.org/2000/svg">
<path d="M16 28C18.3734 28 20.6935 27.2962 22.6668 25.9776C24.6402 24.6591 26.1783 22.7849 27.0866 20.5922C27.9948 18.3995 28.2324 15.9867 27.7694 13.6589C27.3064 11.3311 26.1635 9.19295 24.4853 7.51472C22.8071 5.83649 20.6689 4.6936 18.3411 4.23058C16.0133 3.76756 13.6005 4.0052 11.4078 4.91345C9.21509 5.8217 7.34094 7.35977 6.02237 9.33316C4.70379 11.3066 4 13.6266 4 16C4 17.984 4.48 19.8533 5.33333 21.5027L4 28L10.4973 26.6667C12.1453 27.5187 14.0173 28 16 28Z" stroke="#399AF3" stroke-width="2" stroke-linecap="round" stroke-linejoin="round"/>
</svg>
