<svg width="25" height="24" viewBox="0 0 25 24" fill="none" xmlns="http://www.w3.org/2000/svg">
<g clip-path="url(#clip0_1_1083)">
<path d="M22.1797 8.0625C22.5312 8.25781 22.8516 8.49609 23.1406 8.77734C23.4297 9.05859 23.6719 9.37109 23.8672 9.71484C24.0625 10.0586 24.2187 10.4219 24.3359 10.8047C24.4531 11.1875 24.5078 11.5859 24.5 12H23C23 11.5937 22.9219 11.207 22.7656 10.8398C22.6094 10.4727 22.3945 10.1562 22.1211 9.89062C21.8477 9.625 21.5273 9.41016 21.1602 9.24609C20.793 9.08203 20.4062 9 20 9C19.5859 9 19.1992 9.07812 18.8398 9.23437C18.4805 9.39062 18.1641 9.60547 17.8906 9.87891C17.6172 10.1523 17.4023 10.4727 17.2461 10.8398C17.0898 11.207 17.0078 11.5937 17 12C17 12.7109 16.8398 13.3867 16.5195 14.0273C16.1992 14.668 15.75 15.1992 15.1719 15.6211C15.6797 15.8789 16.1367 16.1953 16.543 16.5703C16.9492 16.9453 17.3008 17.3672 17.5977 17.8359C17.8945 18.3047 18.1172 18.8047 18.2656 19.3359C18.4141 19.8672 18.4922 20.4219 18.5 21H17C17 20.3828 16.8828 19.8008 16.6484 19.2539C16.4141 18.707 16.0898 18.2305 15.6758 17.8242C15.2617 17.418 14.7852 17.0977 14.2461 16.8633C13.707 16.6289 13.125 16.5078 12.5 16.5C11.8828 16.5 11.3008 16.6172 10.7539 16.8516C10.207 17.0859 9.73047 17.4102 9.32422 17.8242C8.91797 18.2383 8.59766 18.7148 8.36328 19.2539C8.12891 19.793 8.00781 20.375 8 21H6.5C6.5 20.4297 6.57812 19.8789 6.73437 19.3477C6.89062 18.8164 7.11328 18.3164 7.40234 17.8477C7.69141 17.3789 8.03906 16.957 8.44531 16.582C8.85156 16.207 9.3125 15.8867 9.82812 15.6211C9.25781 15.1992 8.8125 14.668 8.49219 14.0273C8.17187 13.3867 8.00781 12.7109 8 12C8 11.5937 7.92187 11.207 7.76562 10.8398C7.60937 10.4727 7.39453 10.1562 7.12109 9.89062C6.84766 9.625 6.52734 9.41016 6.16016 9.24609C5.79297 9.08203 5.40625 9 5 9C4.58594 9 4.19922 9.07812 3.83984 9.23437C3.48047 9.39062 3.16406 9.60547 2.89062 9.87891C2.61719 10.1523 2.40234 10.4727 2.24609 10.8398C2.08984 11.207 2.00781 11.5937 2 12H0.5C0.5 11.5937 0.554688 11.1992 0.664062 10.8164C0.773437 10.4336 0.925781 10.0703 1.12109 9.72656C1.31641 9.38281 1.5625 9.07031 1.85937 8.78906C2.15625 8.50781 2.47656 8.26562 2.82031 8.0625C2.5625 7.78906 2.36328 7.47266 2.22266 7.11328C2.08203 6.75391 2.00781 6.38281 2 6C2 5.59375 2.07812 5.20703 2.23437 4.83984C2.39062 4.47266 2.60547 4.15625 2.87891 3.89062C3.15234 3.625 3.46875 3.41016 3.82812 3.24609C4.1875 3.08203 4.57812 3 5 3C5.40625 3 5.79297 3.07812 6.16016 3.23437C6.52734 3.39062 6.84375 3.60547 7.10937 3.87891C7.375 4.15234 7.58984 4.47266 7.75391 4.83984C7.91797 5.20703 8 5.59375 8 6C8 6.38281 7.92969 6.75391 7.78906 7.11328C7.64844 7.47266 7.44531 7.78906 7.17969 8.0625C7.82031 8.41406 8.34375 8.89844 8.75 9.51562C9.17187 8.89062 9.71094 8.39844 10.3672 8.03906C11.0234 7.67969 11.7344 7.5 12.5 7.5C13.2578 7.5 13.9648 7.67969 14.6211 8.03906C15.2773 8.39844 15.8203 8.89062 16.25 9.51562C16.6562 8.89844 17.1797 8.41406 17.8203 8.0625C17.5625 7.78906 17.3633 7.47266 17.2227 7.11328C17.082 6.75391 17.0078 6.38281 17 6C17 5.59375 17.0781 5.20703 17.2344 4.83984C17.3906 4.47266 17.6055 4.15625 17.8789 3.89062C18.1523 3.625 18.4687 3.41016 18.8281 3.24609C19.1875 3.08203 19.5781 3 20 3C20.4062 3 20.793 3.07812 21.1602 3.23437C21.5273 3.39062 21.8437 3.60547 22.1094 3.87891C22.375 4.15234 22.5898 4.47266 22.7539 4.83984C22.918 5.20703 23 5.59375 23 6C23 6.38281 22.9297 6.75391 22.7891 7.11328C22.6484 7.47266 22.4453 7.78906 22.1797 8.0625ZM3.5 6C3.5 6.21094 3.53906 6.40625 3.61719 6.58594C3.69531 6.76562 3.80078 6.92187 3.93359 7.05469C4.06641 7.1875 4.22656 7.29687 4.41406 7.38281C4.60156 7.46875 4.79687 7.50781 5 7.5C5.21094 7.5 5.40625 7.46094 5.58594 7.38281C5.76562 7.30469 5.92187 7.19922 6.05469 7.06641C6.1875 6.93359 6.29687 6.77344 6.38281 6.58594C6.46875 6.39844 6.50781 6.20312 6.5 6C6.5 5.78906 6.46094 5.59375 6.38281 5.41406C6.30469 5.23437 6.19922 5.07812 6.06641 4.94531C5.93359 4.8125 5.77344 4.70312 5.58594 4.61719C5.39844 4.53125 5.20312 4.49219 5 4.5C4.78906 4.5 4.59375 4.53906 4.41406 4.61719C4.23437 4.69531 4.07812 4.80078 3.94531 4.93359C3.8125 5.06641 3.70312 5.22656 3.61719 5.41406C3.53125 5.60156 3.49219 5.79687 3.5 6ZM12.5 15C12.9062 15 13.293 14.9219 13.6602 14.7656C14.0273 14.6094 14.3437 14.3945 14.6094 14.1211C14.875 13.8477 15.0898 13.5312 15.2539 13.1719C15.418 12.8125 15.5 12.4219 15.5 12C15.5 11.5937 15.4219 11.207 15.2656 10.8398C15.1094 10.4727 14.8945 10.1562 14.6211 9.89062C14.3477 9.625 14.0273 9.41016 13.6602 9.24609C13.293 9.08203 12.9062 9 12.5 9C12.0859 9 11.6992 9.07812 11.3398 9.23437C10.9805 9.39062 10.6641 9.60547 10.3906 9.87891C10.1172 10.1523 9.90234 10.4727 9.74609 10.8398C9.58984 11.207 9.50781 11.5937 9.5 12C9.5 12.4141 9.57812 12.8008 9.73437 13.1602C9.89062 13.5195 10.1055 13.8359 10.3789 14.1094C10.6523 14.3828 10.9687 14.5977 11.3281 14.7539C11.6875 14.9102 12.0781 14.9922 12.5 15ZM18.5 6C18.5 6.21094 18.5391 6.40625 18.6172 6.58594C18.6953 6.76562 18.8008 6.92187 18.9336 7.05469C19.0664 7.1875 19.2266 7.29687 19.4141 7.38281C19.6016 7.46875 19.7969 7.50781 20 7.5C20.2109 7.5 20.4062 7.46094 20.5859 7.38281C20.7656 7.30469 20.9219 7.19922 21.0547 7.06641C21.1875 6.93359 21.2969 6.77344 21.3828 6.58594C21.4687 6.39844 21.5078 6.20312 21.5 6C21.5 5.78906 21.4609 5.59375 21.3828 5.41406C21.3047 5.23437 21.1992 5.07812 21.0664 4.94531C20.9336 4.8125 20.7734 4.70312 20.5859 4.61719C20.3984 4.53125 20.2031 4.49219 20 4.5C19.7891 4.5 19.5937 4.53906 19.4141 4.61719C19.2344 4.69531 19.0781 4.80078 18.9453 4.93359C18.8125 5.06641 18.7031 5.22656 18.6172 5.41406C18.5312 5.60156 18.4922 5.79687 18.5 6Z" fill="#008F5C"/>
</g>
<defs>
<clipPath id="clip0_1_1083">
<rect width="24" height="24" fill="white" transform="translate(0.5)"/>
</clipPath>
</defs>
</svg>
