<svg width="20" height="20" viewBox="0 0 20 20" fill="none" xmlns="http://www.w3.org/2000/svg">
<path d="M16.3013 5.83333C16.4918 4.74602 15.6551 3.75 14.5513 3.75H5.44807C4.3442 3.75 3.50752 4.74602 3.69804 5.83333" stroke="#1C1C1C" stroke-width="1.25"/>
<path d="M14.5832 3.74984C14.6069 3.53394 14.6187 3.42596 14.6189 3.3368C14.6208 2.48377 13.9782 1.76704 13.1301 1.67602C13.0414 1.6665 12.9328 1.6665 12.7157 1.6665H7.28415C7.06695 1.6665 6.95835 1.6665 6.86968 1.67602C6.02153 1.76704 5.37901 2.48377 5.38086 3.33679C5.38106 3.42596 5.39288 3.53392 5.41652 3.74984" stroke="#1C1C1C" stroke-width="1.25"/>
<path d="M12.1507 11.3464C12.616 11.6349 12.616 12.3817 12.1507 12.6702L9.34101 14.4119C8.88876 14.6922 8.33301 14.3274 8.33301 13.7501V10.2665C8.33301 9.68924 8.88876 9.32432 9.34101 9.60465L12.1507 11.3464Z" stroke="#1C1C1C" stroke-width="1.25"/>
<path d="M1.98658 11.4943C1.61489 8.858 1.42905 7.53987 2.21893 6.68669C3.0088 5.8335 4.41498 5.8335 7.22732 5.8335H12.7733C15.5857 5.8335 16.9918 5.8335 17.7817 6.68669C18.5716 7.53987 18.3857 8.858 18.0141 11.4943L17.6616 13.9943C17.3701 16.0617 17.2244 17.0954 16.4767 17.7145C15.7291 18.3335 14.6263 18.3335 12.4208 18.3335H7.57979C5.37433 18.3335 4.2716 18.3335 3.52394 17.7145C2.77628 17.0954 2.63054 16.0617 2.33906 13.9943L1.98658 11.4943Z" stroke="#1C1C1C" stroke-width="1.25"/>
</svg>
