<svg width="20" height="20" viewBox="0 0 20 20" fill="none" xmlns="http://www.w3.org/2000/svg">
<path d="M8.21437 4.28585H11.7858C11.7858 3.81225 11.5977 3.35805 11.2628 3.02316C10.9279 2.68828 10.4737 2.50014 10.0001 2.50014C9.52649 2.50014 9.07228 2.68828 8.7374 3.02316C8.40251 3.35805 8.21437 3.81225 8.21437 4.28585ZM7.14294 4.28585C7.14294 3.52809 7.44396 2.80137 7.97978 2.26555C8.5156 1.72973 9.24233 1.42871 10.0001 1.42871C10.7578 1.42871 11.4846 1.72973 12.0204 2.26555C12.5562 2.80137 12.8572 3.52809 12.8572 4.28585H17.3215C17.4636 4.28585 17.5999 4.34229 17.7003 4.44276C17.8008 4.54323 17.8572 4.67949 17.8572 4.82157C17.8572 4.96365 17.8008 5.09991 17.7003 5.20038C17.5999 5.30084 17.4636 5.35728 17.3215 5.35728H16.3858L15.5165 15.788C15.4533 16.5468 15.1072 17.2541 14.5469 17.7697C13.9866 18.2853 13.253 18.5715 12.4915 18.5716H7.50866C6.74722 18.5715 6.01362 18.2853 5.4533 17.7697C4.89299 17.2541 4.5469 16.5468 4.48366 15.788L3.61437 5.35728H2.67866C2.53658 5.35728 2.40032 5.30084 2.29985 5.20038C2.19939 5.09991 2.14294 4.96365 2.14294 4.82157C2.14294 4.67949 2.19939 4.54323 2.29985 4.44276C2.40032 4.34229 2.53658 4.28585 2.67866 4.28585H7.14294ZM5.55152 15.6987C5.59237 16.1897 5.81625 16.6474 6.17876 16.9811C6.54128 17.3148 7.01596 17.5 7.50866 17.5001H12.4915C12.9842 17.5 13.4589 17.3148 13.8214 16.9811C14.1839 16.6474 14.4078 16.1897 14.4487 15.6987L15.3115 5.35728H4.68937L5.55152 15.6987ZM8.39294 7.85728C8.53502 7.85728 8.67129 7.91372 8.77175 8.01419C8.87222 8.11466 8.92866 8.25092 8.92866 8.393V14.4644C8.92866 14.6065 8.87222 14.7428 8.77175 14.8432C8.67129 14.9437 8.53502 15.0001 8.39294 15.0001C8.25086 15.0001 8.1146 14.9437 8.01414 14.8432C7.91367 14.7428 7.85723 14.6065 7.85723 14.4644V8.393C7.85723 8.25092 7.91367 8.11466 8.01414 8.01419C8.1146 7.91372 8.25086 7.85728 8.39294 7.85728ZM12.1429 8.393C12.1429 8.25092 12.0865 8.11466 11.986 8.01419C11.8856 7.91372 11.7493 7.85728 11.6072 7.85728C11.4651 7.85728 11.3289 7.91372 11.2284 8.01419C11.128 8.11466 11.0715 8.25092 11.0715 8.393V14.4644C11.0715 14.6065 11.128 14.7428 11.2284 14.8432C11.3289 14.9437 11.4651 15.0001 11.6072 15.0001C11.7493 15.0001 11.8856 14.9437 11.986 14.8432C12.0865 14.7428 12.1429 14.6065 12.1429 14.4644V8.393Z" fill="#FF0000"/>
</svg>
