<svg width="20" height="21" viewBox="0 0 20 21" fill="none" xmlns="http://www.w3.org/2000/svg">
<path d="M17.1809 3.42683C16.9074 3.13921 16.5791 2.90922 16.2153 2.75042C15.8516 2.59163 15.4597 2.50722 15.0628 2.50219C14.6659 2.49716 14.2721 2.5716 13.9044 2.72112C13.5367 2.87065 13.2027 3.09223 12.9219 3.37283L3.54693 12.7478C3.21925 13.0754 2.9917 13.4896 2.89093 13.9418L2.01393 17.8918C1.99563 17.9739 1.99833 18.0593 2.02179 18.1401C2.04524 18.2208 2.08868 18.2944 2.1481 18.3539C2.20752 18.4134 2.28099 18.457 2.36172 18.4806C2.44245 18.5042 2.52782 18.507 2.60993 18.4888L6.53693 17.6158C7.00437 17.5118 7.43244 17.2766 7.77093 16.9378L17.1289 7.57983C17.6774 7.03107 17.9899 6.28974 17.9996 5.51391C18.0093 4.73808 17.7155 3.98915 17.1809 3.42683ZM13.6289 4.07983C13.8118 3.89428 14.0297 3.74675 14.2698 3.64575C14.51 3.54475 14.7678 3.49227 15.0284 3.49133C15.2889 3.4904 15.5471 3.54103 15.788 3.64031C16.0289 3.73958 16.2477 3.88555 16.432 4.06978C16.6162 4.25402 16.7622 4.47289 16.8615 4.71379C16.9607 4.95469 17.0114 5.21285 17.0104 5.4734C17.0095 5.73395 16.957 5.99174 16.856 6.23192C16.755 6.4721 16.6075 6.68992 16.4219 6.87283L15.7509 7.54383L12.9579 4.75183L13.6289 4.07983ZM12.2509 5.45983L15.0439 8.25183L7.06393 16.2318C6.85988 16.4362 6.60179 16.578 6.31993 16.6408L3.15993 17.3428L3.86793 14.1598C3.92693 13.8928 4.06093 13.6488 4.25393 13.4558L12.2509 5.45983Z" fill="#399AF3"/>
</svg>
