<svg width="20" height="20" viewBox="0 0 20 20" fill="none" xmlns="http://www.w3.org/2000/svg">
<g clip-path="url(#clip0_236_21445)">
<path d="M1.66699 10.1698C1.66699 8.26234 1.66699 7.309 2.10033 6.519C2.53199 5.72817 3.32283 5.23817 4.90366 4.2565L6.57033 3.22234C8.24116 2.18484 9.07699 1.6665 10.0003 1.6665C10.9237 1.6665 11.7587 2.18484 13.4303 3.22234L15.097 4.2565C16.6778 5.23817 17.4687 5.72817 17.9012 6.519C18.3337 7.309 18.3337 8.26234 18.3337 10.169V11.4373C18.3337 14.6873 18.3337 16.3132 17.357 17.3232C16.3812 18.3332 14.8095 18.3332 11.667 18.3332H8.33366C5.19116 18.3332 3.61949 18.3332 2.64366 17.3232C1.66699 16.3132 1.66699 14.6882 1.66699 11.4373V10.1698Z" stroke="#1C1C1C" stroke-width="1.5625"/>
<path d="M10 12.5V15" stroke="#1C1C1C" stroke-width="1.5625" stroke-linecap="round"/>
</g>
<defs>
<clipPath id="clip0_236_21445">
<rect width="20" height="20" fill="white"/>
</clipPath>
</defs>
</svg>
