<svg width="20" height="20" viewBox="0 0 20 20" fill="none" xmlns="http://www.w3.org/2000/svg">
<path d="M12.4545 1.0415C11.3153 1.0415 10.3961 1.0415 9.67363 1.139C8.92363 1.239 8.29196 1.45567 7.7903 1.9565C7.35363 2.394 7.13196 2.9315 7.01613 3.56317C6.90363 4.17734 6.88196 4.92817 6.87696 5.82984C6.87608 5.9956 6.94108 6.15492 7.05766 6.27276C7.17425 6.39059 7.33287 6.45729 7.49863 6.45817C7.66439 6.45905 7.82371 6.39405 7.94155 6.27747C8.05938 6.16088 8.12608 6.00226 8.12696 5.8365C8.13196 4.92567 8.1553 4.27984 8.2453 3.789C8.3328 3.31734 8.47196 3.04317 8.67446 2.84067C8.9053 2.60984 9.22946 2.45984 9.84113 2.37734C10.4703 2.29317 11.3045 2.2915 12.5003 2.2915H13.3336C14.5303 2.2915 15.3645 2.29317 15.9936 2.37734C16.6053 2.45984 16.9286 2.61067 17.1603 2.84067C17.3903 3.0715 17.5403 3.39484 17.6228 4.00734C17.7078 4.63567 17.7086 5.47067 17.7086 6.6665V13.3332C17.7086 14.529 17.7078 15.3632 17.6228 15.9932C17.5403 16.6048 17.3903 16.9282 17.1595 17.159C16.9286 17.3898 16.6053 17.5398 15.9936 17.6223C15.3645 17.7065 14.5303 17.7082 13.3336 17.7082H12.5003C11.3045 17.7082 10.4703 17.7065 9.8403 17.6223C9.22946 17.5398 8.9053 17.389 8.67446 17.159C8.47196 16.9557 8.3328 16.6823 8.2453 16.2107C8.1553 15.7198 8.13196 15.074 8.12696 14.1632C8.12652 14.0811 8.10992 13.9999 8.07811 13.9242C8.0463 13.8486 7.99989 13.7799 7.94155 13.7222C7.8832 13.6645 7.81406 13.6188 7.73806 13.5878C7.66206 13.5568 7.58071 13.5411 7.49863 13.5415C7.41655 13.5419 7.33537 13.5585 7.25971 13.5904C7.18404 13.6222 7.11539 13.6686 7.05766 13.7269C6.99994 13.7853 6.95427 13.8544 6.92326 13.9304C6.89226 14.0064 6.87652 14.0878 6.87696 14.1698C6.88196 15.0715 6.90363 15.8223 7.01613 16.4365C7.1328 17.0682 7.35363 17.6057 7.79113 18.0432C8.29196 18.5448 8.92446 18.7598 9.67446 18.8615C10.3961 18.9582 11.3153 18.9582 12.4545 18.9582H13.3795C14.5195 18.9582 15.4378 18.9582 16.1603 18.8615C16.9103 18.7598 17.542 18.5448 18.0436 18.0432C18.5453 17.5415 18.7603 16.9098 18.862 16.1598C18.9586 15.4373 18.9586 14.5182 18.9586 13.379V6.62067C18.9586 5.4815 18.9586 4.56234 18.862 3.83984C18.7611 3.08984 18.5453 2.45817 18.0436 1.9565C17.542 1.45484 16.9103 1.23984 16.1603 1.139C15.4378 1.0415 14.5186 1.0415 13.3795 1.0415H12.4545Z" fill="#FF4E4E"/>
<path d="M12.4998 9.37481C12.6656 9.37481 12.8245 9.44066 12.9418 9.55787C13.059 9.67508 13.1248 9.83405 13.1248 9.99981C13.1248 10.1656 13.059 10.3245 12.9418 10.4418C12.8245 10.559 12.6656 10.6248 12.4998 10.6248H3.35565L4.98981 12.0248C5.11579 12.1327 5.19376 12.2862 5.20658 12.4515C5.21939 12.6168 5.166 12.7805 5.05815 12.9065C4.95029 13.0325 4.79681 13.1104 4.63147 13.1232C4.46612 13.1361 4.30246 13.0827 4.17648 12.9748L1.25981 10.4748C1.1912 10.4161 1.13612 10.3433 1.09834 10.2613C1.06057 10.1793 1.04102 10.0901 1.04102 9.99981C1.04102 9.90954 1.06057 9.82033 1.09834 9.73833C1.13612 9.65633 1.1912 9.58349 1.25981 9.52481L4.17648 7.02481C4.23886 6.97141 4.31114 6.93081 4.38921 6.90535C4.46728 6.87988 4.5496 6.87004 4.63147 6.87638C4.71334 6.88273 4.79316 6.90514 4.86637 6.94233C4.93958 6.97952 5.00474 7.03077 5.05815 7.09315C5.11155 7.15553 5.15215 7.22781 5.17761 7.30588C5.20308 7.38394 5.21292 7.46626 5.20658 7.54813C5.20023 7.63 5.17783 7.70982 5.14063 7.78303C5.10344 7.85624 5.05219 7.92141 4.98981 7.97481L3.35648 9.37481H12.4998Z" fill="#FF4E4E"/>
</svg>
