<svg width="28" height="28" viewBox="0 0 28 28" fill="none" xmlns="http://www.w3.org/2000/svg">
<path d="M5.9375 4C4.89321 4 3.89169 4.41484 3.15327 5.15327C2.41484 5.89169 2 6.89321 2 7.9375V19.3125C2 20.3568 2.41484 21.3583 3.15327 22.0967C3.89169 22.8352 4.89321 23.25 5.9375 23.25H22.5625C23.6068 23.25 24.6083 22.8352 25.3467 22.0967C26.0852 21.3583 26.5 20.3568 26.5 19.3125V7.9375C26.5 6.89321 26.0852 5.89169 25.3467 5.15327C24.6083 4.41484 23.6068 4 22.5625 4H5.9375ZM24.75 8.72762L14.25 14.381L3.75 8.72762V7.9375C3.75 7.35734 3.98047 6.80094 4.3907 6.3907C4.80094 5.98047 5.35734 5.75 5.9375 5.75H22.5625C23.1427 5.75 23.6991 5.98047 24.1093 6.3907C24.5195 6.80094 24.75 7.35734 24.75 7.9375V8.72762ZM3.75 10.7147L13.8352 16.1459C13.9627 16.2145 14.1052 16.2504 14.25 16.2504C14.3948 16.2504 14.5373 16.2145 14.6648 16.1459L24.75 10.7147V19.3125C24.75 19.8927 24.5195 20.4491 24.1093 20.8593C23.6991 21.2695 23.1427 21.5 22.5625 21.5H5.9375C5.35734 21.5 4.80094 21.2695 4.3907 20.8593C3.98047 20.4491 3.75 19.8927 3.75 19.3125V10.7147Z" fill="black"/>
</svg>
