<svg width="24" height="24" viewBox="0 0 24 24" fill="none" xmlns="http://www.w3.org/2000/svg">
<path d="M9 14H19L15.55 9.5L13.25 12.5L11.7 10.5L9 14ZM8 18C7.45 18 6.979 17.804 6.587 17.412C6.195 17.02 5.99934 16.5493 6 16V4C6 3.45 6.196 2.979 6.588 2.587C6.98 2.195 7.45067 1.99934 8 2H20C20.55 2 21.021 2.196 21.413 2.588C21.805 2.98 22.0007 3.45067 22 4V16C22 16.55 21.804 17.021 21.412 17.413C21.02 17.805 20.5493 18.0007 20 18H8ZM8 16H20V4H8V16ZM4 22C3.45 22 2.979 21.804 2.587 21.412C2.195 21.02 1.99934 20.5493 2 20V6H4V20H18V22H4Z" fill="#676767"/>
</svg>
