<svg width="20" height="20" viewBox="0 0 20 20" fill="none" xmlns="http://www.w3.org/2000/svg">
<path d="M10 1.25C5.17473 1.25 1.25 5.17473 1.25 10C1.25 14.8253 5.17473 18.75 10 18.75C14.8253 18.75 18.75 14.8253 18.75 10C18.75 5.17473 14.8253 1.25 10 1.25ZM10.4385 2.48865C12.6817 2.61693 14.6569 3.72292 15.9486 5.38805C15.6077 5.3793 15.2684 5.3772 14.9305 5.38228C14.3438 5.392 13.7578 5.42305 13.1735 5.47538C13.066 5.25358 12.8983 5.06651 12.6894 4.9356C12.4806 4.80469 12.2392 4.73521 11.9927 4.73513C11.9317 4.73513 11.8707 4.7394 11.8102 4.7479C11.3992 3.96771 10.9411 3.21323 10.4385 2.48865ZM9.3749 2.50265C10.0114 3.37223 10.5631 4.25493 11.0353 5.14987C10.8597 5.33721 10.7428 5.57195 10.6993 5.82503C9.88293 5.9841 9.07514 6.18444 8.27905 6.42527C8.17999 6.29134 8.05634 6.17749 7.9147 6.0898C8.24493 4.91118 8.70692 3.71697 9.29755 2.50842C9.32327 2.50615 9.34918 2.50493 9.3749 2.50265ZM8.2479 2.6815C7.7544 3.76038 7.36065 4.83522 7.0677 5.90325C6.89049 5.92451 6.71947 5.98169 6.56511 6.0713C6.41075 6.16091 6.27629 6.28106 6.16995 6.4244C5.38036 6.17257 4.58061 5.95375 3.7728 5.7685C4.82712 4.21722 6.4233 3.11614 8.2479 2.6815ZM15.4444 6.25465C15.8105 6.25692 16.1784 6.26865 16.5482 6.2879C16.9901 7.06638 17.2887 7.91792 17.4296 8.80195C16.3709 8.97415 15.3401 9.21268 14.3367 9.51332C14.2283 9.37918 14.0947 9.2677 13.9432 9.18525C13.7918 9.10279 13.6256 9.05098 13.4541 9.03277C13.2855 8.36124 13.08 7.6995 12.8387 7.05055C13.0557 6.86743 13.2075 6.61886 13.2713 6.34215C13.9886 6.27985 14.7126 6.24992 15.4444 6.25465ZM3.3031 6.563C4.19595 6.75952 5.0671 6.9893 5.91288 7.25933C5.91293 7.26108 5.91299 7.26283 5.91305 7.26458C4.77415 7.73235 3.65433 8.28395 2.55323 8.91605C2.67101 8.09555 2.92442 7.30035 3.3031 6.563ZM10.8446 6.6827C10.958 6.88781 11.1243 7.0588 11.3262 7.1779C11.5281 7.29699 11.7582 7.35986 11.9925 7.35995C12.0043 7.35982 12.0161 7.35953 12.0279 7.35908C12.2567 7.97171 12.4516 8.59647 12.6117 9.23053C12.546 9.2722 12.4841 9.31963 12.4267 9.37227C11.1927 8.56796 9.88983 7.87441 8.5335 7.29975C8.53457 7.28483 8.53539 7.2699 8.53595 7.25495C9.29545 7.02558 10.0658 6.83459 10.8446 6.6827ZM6.23855 8.07237C6.33505 8.18212 6.44921 8.27498 6.5763 8.34713C6.3607 10.0343 6.40847 11.6979 6.73747 13.3252C5.96213 13.8922 5.21515 14.4969 4.49922 15.1373C3.2436 13.7935 2.475 11.989 2.475 10C2.475 9.99177 2.4757 9.9839 2.4757 9.97567C3.70893 9.23472 4.96245 8.59825 6.23855 8.07237ZM8.18472 8.1002C9.52164 8.66516 10.8045 9.3503 12.0176 10.1472C12.0082 10.2103 12.0034 10.2741 12.0032 10.3379C12.0032 10.3407 12.0032 10.3434 12.0032 10.3462C10.4352 10.998 8.93828 11.8126 7.51063 12.7811C7.26388 11.3814 7.23763 9.95485 7.4219 8.5034C7.71435 8.45881 7.98316 8.31673 8.18472 8.1002ZM17.5168 9.67415C17.5213 9.78212 17.525 9.89062 17.525 9.99982C17.5261 11.0656 17.3005 12.1195 16.863 13.0914C16.1264 12.3071 15.339 11.5721 14.5059 10.8913C14.5862 10.7188 14.628 10.5308 14.6284 10.3405C15.5763 10.0581 16.541 9.83551 17.5168 9.67415ZM12.2986 11.1667C12.4875 11.3986 12.7499 11.559 13.0424 11.6214C13.2338 13.3554 13.1754 15.1329 12.8793 16.9554C11.9662 17.3325 10.9879 17.5261 10 17.525C9.74152 17.525 9.48602 17.512 9.23438 17.4867C8.53227 16.2505 8.0253 14.9894 7.7068 13.7055C9.1642 12.6864 10.6928 11.8371 12.2986 11.1667ZM13.9053 11.5272C14.8046 12.26 15.6491 13.0576 16.4319 13.9137C15.789 14.9686 14.8967 15.8494 13.8335 16.4785C14.0584 14.7981 14.0856 13.146 13.9053 11.5276V11.5272ZM6.95605 14.2493C7.2343 15.2806 7.627 16.2963 8.13783 17.2931C7.03172 17.0119 6.00447 16.4817 5.13447 15.743C5.72895 15.2145 6.33602 14.7157 6.95605 14.2493Z" fill="#1C1C1C"/>
</svg>
