<svg width="20" height="20" viewBox="0 0 20 20" fill="none" xmlns="http://www.w3.org/2000/svg">
<path d="M12.1699 16.3755C12.1699 17.0385 11.9065 17.6744 11.4377 18.1432C10.9688 18.6121 10.3329 18.8755 9.66992 18.8755C9.00692 18.8755 8.371 18.6121 7.90216 18.1432C7.43332 17.6744 7.16992 17.0385 7.16992 16.3755" stroke="black" stroke-width="1.25" stroke-linecap="round" stroke-linejoin="round"/>
<path d="M4.32072 15.5421C3.91285 15.4555 3.55224 15.2192 3.31003 14.8798C3.06783 14.5404 2.96163 14.1226 3.01241 13.7087L3.84574 6.95039C4.05851 5.56093 4.76582 4.295 5.8376 3.38553C6.90937 2.47605 8.27351 1.98419 9.67909 2.00039C11.0847 1.98419 12.4488 2.47605 13.5205 3.38553C14.5923 4.295 15.2997 5.56093 15.5124 6.95039L16.3458 13.7087C16.3968 14.1214 16.2918 14.5382 16.0513 14.8775C15.8108 15.2167 15.4521 15.4537 15.0458 15.5421C11.5188 16.3708 7.84769 16.3708 4.32072 15.5421Z" stroke="black" stroke-width="1.25" stroke-linecap="round" stroke-linejoin="round"/>
</svg>
