<svg width="20" height="21" viewBox="0 0 20 21" fill="none" xmlns="http://www.w3.org/2000/svg">
<g clip-path="url(#clip0_1_545)">
<path d="M2.14272 14.0715L12.1427 14.0715C12.9317 14.0715 13.5713 13.4319 13.5713 12.643L13.5713 2.64296C13.5713 1.85398 12.9317 1.21439 12.1427 1.21439L2.14272 1.21439C1.35374 1.21439 0.714148 1.85398 0.714148 2.64296L0.714148 12.643C0.714148 13.4319 1.35374 14.0715 2.14272 14.0715Z" stroke="#399AF3" stroke-width="1.8" stroke-linecap="round" stroke-linejoin="round"/>
<path d="M17.1429 7.21436L18.2572 7.5715C18.437 7.62968 18.6034 7.72294 18.7469 7.84589C18.8904 7.96884 19.0081 8.11904 19.0931 8.28778C19.1781 8.45652 19.2288 8.64045 19.2423 8.82893C19.2558 9.0174 19.2317 9.20667 19.1715 9.38578L16.0572 18.8001C15.9395 19.1598 15.6839 19.4582 15.3464 19.6296C15.0089 19.8011 14.6172 19.8315 14.2572 19.7144L7.94293 17.6429M0.714355 10.5001H13.5715" stroke="#399AF3" stroke-width="1.8" stroke-linecap="round" stroke-linejoin="round"/>
</g>
<defs>
<clipPath id="clip0_1_545">
<rect width="20" height="20" fill="white" transform="translate(0 0.5)"/>
</clipPath>
</defs>
</svg>
