<svg width="25" height="24" viewBox="0 0 25 24" fill="none" xmlns="http://www.w3.org/2000/svg">
<path d="M21.465 7C21.387 5.128 21.137 3.98 20.328 3.172C19.157 2 17.271 2 13.5 2H11.5C7.729 2 5.843 2 4.672 3.172C3.5 4.343 3.5 6.229 3.5 10V14C3.5 17.771 3.5 19.657 4.672 20.828C5.843 22 7.729 22 11.5 22H13.5C17.271 22 19.157 22 20.328 20.828C21.5 19.657 21.5 17.771 21.5 14V11" stroke="#399AF3" stroke-width="1.5" stroke-linecap="round"/>
<path d="M6.5 12C6.5 10.586 6.5 9.879 6.94 9.44C7.378 9 8.085 9 9.5 9H15.5C16.914 9 17.621 9 18.06 9.44C18.5 9.879 18.5 10.586 18.5 12V16C18.5 17.414 18.5 18.121 18.06 18.56C17.621 19 16.914 19 15.5 19H9.5C8.086 19 7.379 19 6.94 18.56C6.5 18.122 6.5 17.415 6.5 16V12Z" stroke="#399AF3" stroke-width="1.5"/>
<path d="M7.5 6H12.5" stroke="#399AF3" stroke-width="1.5" stroke-linecap="round"/>
</svg>
