<svg width="24" height="24" viewBox="0 0 24 24" fill="none" xmlns="http://www.w3.org/2000/svg">
<path d="M6.66667 12H13.3333M6.66667 14.5714H16M6.66667 17.1429H10.6667M20 18.4286V9.42857L13.3333 3H6.66667C5.95942 3 5.28115 3.27092 4.78105 3.75315C4.28095 4.23539 4 4.88944 4 5.57143V18.4286C4 19.1106 4.28095 19.7646 4.78105 20.2468C5.28115 20.7291 5.95942 21 6.66667 21H17.3333C18.0406 21 18.7189 20.7291 19.219 20.2468C19.719 19.7646 20 19.1106 20 18.4286Z" stroke="#676767" stroke-width="1.5" stroke-linecap="round" stroke-linejoin="round"/>
<path d="M13 3V6.6C13 7.23652 13.295 7.84697 13.8201 8.29706C14.3452 8.74714 15.0574 9 15.8 9H20" stroke="#676767" stroke-width="1.5" stroke-linecap="round" stroke-linejoin="round"/>
</svg>
