<svg width="20" height="20" viewBox="0 0 20 20" fill="none" xmlns="http://www.w3.org/2000/svg">
<path d="M15.2502 4.75828C15.1731 4.68102 15.0815 4.61973 14.9807 4.57792C14.8799 4.5361 14.7718 4.51457 14.6627 4.51457C14.5535 4.51457 14.4455 4.5361 14.3447 4.57792C14.2439 4.61973 14.1523 4.68102 14.0752 4.75828L10.0002 8.82494L5.92519 4.74994C5.84803 4.67279 5.75644 4.61159 5.65564 4.56984C5.55484 4.52808 5.4468 4.50659 5.33769 4.50659C5.22858 4.50659 5.12054 4.52808 5.01973 4.56984C4.91893 4.61159 4.82734 4.67279 4.75019 4.74994C4.67303 4.82709 4.61183 4.91869 4.57008 5.01949C4.52833 5.12029 4.50684 5.22833 4.50684 5.33744C4.50684 5.44655 4.52833 5.55459 4.57008 5.6554C4.61183 5.7562 4.67303 5.84779 4.75019 5.92494L8.82519 9.99994L4.75019 14.0749C4.67303 14.1521 4.61183 14.2437 4.57008 14.3445C4.52833 14.4453 4.50684 14.5533 4.50684 14.6624C4.50684 14.7716 4.52833 14.8796 4.57008 14.9804C4.61183 15.0812 4.67303 15.1728 4.75019 15.2499C4.82734 15.3271 4.91893 15.3883 5.01973 15.43C5.12054 15.4718 5.22858 15.4933 5.33769 15.4933C5.4468 15.4933 5.55484 15.4718 5.65564 15.43C5.75644 15.3883 5.84803 15.3271 5.92519 15.2499L10.0002 11.1749L14.0752 15.2499C14.1523 15.3271 14.2439 15.3883 14.3447 15.43C14.4455 15.4718 14.5536 15.4933 14.6627 15.4933C14.7718 15.4933 14.8798 15.4718 14.9806 15.43C15.0814 15.3883 15.173 15.3271 15.2502 15.2499C15.3273 15.1728 15.3885 15.0812 15.4303 14.9804C15.472 14.8796 15.4935 14.7716 15.4935 14.6624C15.4935 14.5533 15.472 14.4453 15.4303 14.3445C15.3885 14.2437 15.3273 14.1521 15.2502 14.0749L11.1752 9.99994L15.2502 5.92494C15.5669 5.60828 15.5669 5.07494 15.2502 4.75828Z" fill="#FF4E4E"/>
</svg>
