<svg width="28" height="28" viewBox="0 0 28 28" fill="none" xmlns="http://www.w3.org/2000/svg">
<path d="M27.5245 0C27.3004 0 27.1192 0.181693 27.1192 0.405698V1.63088C27.1192 1.80262 26.9805 1.942 26.8088 1.942L23.8965 1.942C23.7239 1.942 23.5858 1.80262 23.5858 1.63088V0.405698C23.5858 0.181693 23.4046 0 23.1809 0C22.9577 0 22.7762 0.181693 22.7762 0.405698V1.44794V2.34801V2.83024L5.15261 2.83024L5.15261 2.34832V1.12314V0.406009C5.15261 0.181382 4.97107 0 4.74795 0C4.52421 0 4.34298 0.181382 4.34298 0.406009V1.63088C4.34298 1.80262 4.20426 1.942 4.03234 1.942L1.11934 1.942C0.948349 1.942 0.809013 1.80262 0.809013 1.63088L0.809013 0.406009C0.809013 0.181382 0.628405 0 0.404352 0C0.181229 0 0 0.181382 0 0.406009L0 2.34801L0 6.23169L0 10.116L0 14L0 17.8837L0 21.7683L0 25.652L0 27.594C0 27.818 0.181229 28 0.404352 28C0.628405 28 0.809013 27.818 0.809013 27.594L0.809013 26.3688C0.809013 26.1968 0.948349 26.0577 1.11934 26.0577H4.03265C4.20457 26.0577 4.34329 26.1968 4.34329 26.3688V27.594C4.34329 27.818 4.52452 28 4.74826 28C4.97138 28 5.15292 27.818 5.15292 27.594V25.652V25.3477L22.7762 25.3477V25.652V27.594C22.7762 27.8183 22.9577 27.9997 23.1809 27.9997C23.4046 27.9997 23.5858 27.8183 23.5858 27.594V26.3688C23.5858 26.1971 23.7239 26.0577 23.8965 26.0577H26.8092C26.9808 26.0577 27.1195 26.1971 27.1195 26.3688V27.594C27.1195 27.8183 27.3007 27.9997 27.5248 27.9997C27.7479 27.9997 27.9291 27.8183 27.9291 27.594V25.652V21.7683V17.8843V14.0003L27.9291 10.116V6.23169V2.3477V0.405698C27.9288 0.181693 27.7476 0 27.5245 0ZM4.34329 23.7103L4.34329 24.9355C4.34329 25.1072 4.20457 25.2466 4.03265 25.2466H1.11934C0.948349 25.2466 0.809013 25.1072 0.809013 24.9355L0.809013 22.4854C0.809013 22.3137 0.948349 22.1743 1.11934 22.1743H4.03265C4.20457 22.1743 4.34329 22.3137 4.34329 22.4854V23.7103ZM4.34329 21.0515C4.34329 21.2232 4.20457 21.3626 4.03265 21.3626H1.11934C0.948349 21.3626 0.809013 21.2229 0.809013 21.0515L0.809013 18.6014C0.809013 18.4294 0.948349 18.2903 1.11934 18.2903H4.03265C4.20457 18.2903 4.34329 18.4297 4.34329 18.6014L4.34329 21.0515ZM4.34329 17.1672C4.34329 17.3392 4.20457 17.4783 4.03265 17.4783H1.11934C0.948349 17.4783 0.809013 17.3392 0.809013 17.1672L0.809013 14.7171C0.809013 14.5454 0.948349 14.406 1.11934 14.406H4.03265C4.20457 14.406 4.34329 14.5454 4.34329 14.7171V17.1672ZM4.34329 13.2832C4.34329 13.4549 4.20457 13.5943 4.03265 13.5943H1.11934C0.948349 13.5943 0.809013 13.4549 0.809013 13.2832L0.809013 10.8331C0.809013 10.6614 0.948349 10.522 1.11934 10.522H4.03265C4.20457 10.522 4.34329 10.6614 4.34329 10.8331V13.2832ZM4.34329 9.39888C4.34329 9.57123 4.20457 9.70999 4.03265 9.70999H1.11934C0.948349 9.70999 0.809013 9.57123 0.809013 9.39888L0.809013 6.94882C0.809013 6.77708 0.948349 6.6377 1.11934 6.6377L4.03265 6.6377C4.20457 6.6377 4.34329 6.7774 4.34329 6.94882L4.34329 9.39888ZM4.34329 4.40014V5.51519C4.34329 5.68693 4.20457 5.82631 4.03265 5.82631L1.11934 5.82631C0.948349 5.82631 0.809013 5.68693 0.809013 5.51519L0.809013 3.06482C0.809013 2.89309 0.948349 2.75371 1.11934 2.75371L4.03265 2.75371C4.20457 2.75371 4.34329 2.89309 4.34329 3.06482V4.40014ZM22.7762 24.116V24.5074L5.15261 24.5074V24.116V23.7103L22.7762 23.7103V24.116ZM22.7762 3.99444V4.46797L5.15261 4.46797V3.99444V3.67057L22.7762 3.67057V3.99444ZM27.1192 24.9355C27.1192 25.1075 26.9805 25.2466 26.8088 25.2466H23.8965C23.7239 25.2466 23.5858 25.1075 23.5858 24.9355V23.7103V22.4851C23.5858 22.3131 23.7239 22.174 23.8965 22.174H26.8092C26.9808 22.174 27.1195 22.3131 27.1195 22.4851L27.1192 24.9355ZM27.1192 21.0512C27.1192 21.2232 26.9805 21.3623 26.8088 21.3623H23.8965C23.7239 21.3623 23.5858 21.2229 23.5858 21.0512V18.6011C23.5858 18.4294 23.7239 18.29 23.8965 18.29H26.8092C26.9808 18.29 27.1195 18.4297 27.1195 18.6011L27.1192 21.0512ZM27.1192 17.1675C27.1192 17.3392 26.9805 17.4786 26.8088 17.4786H23.8965C23.7239 17.4786 23.5858 17.3392 23.5858 17.1675V14.7174C23.5858 14.5454 23.7239 14.4063 23.8965 14.4063H26.8092C26.9808 14.4063 27.1195 14.5454 27.1195 14.7174L27.1192 17.1675ZM27.1192 13.2829C27.1192 13.4552 26.9805 13.594 26.8088 13.594H23.8965C23.7239 13.594 23.5858 13.4552 23.5858 13.2829L23.5858 10.8328C23.5858 10.6611 23.7239 10.5217 23.8965 10.5217H26.8092C26.9808 10.5217 27.1195 10.6611 27.1195 10.8328L27.1192 13.2829ZM27.1192 9.39919C27.1192 9.57092 26.9805 9.71031 26.8088 9.71031H23.8965C23.7239 9.71031 23.5858 9.57092 23.5858 9.39919V6.94882C23.5858 6.77708 23.7239 6.6377 23.8965 6.6377L26.8092 6.6377C26.9808 6.6377 27.1195 6.7774 27.1195 6.94882L27.1192 9.39919ZM27.1192 5.51488C27.1192 5.68693 26.9805 5.826 26.8088 5.826L23.8965 5.826C23.7239 5.826 23.5858 5.68693 23.5858 5.51488V4.39983V3.06482C23.5858 2.89309 23.7239 2.75371 23.8965 2.75371L26.8092 2.75371C26.9808 2.75371 27.1195 2.89309 27.1195 3.06482L27.1192 5.51488Z" fill="url(#paint0_linear_1_364)"/>
<path d="M27.5245 0C27.3004 0 27.1192 0.181693 27.1192 0.405698V1.63088C27.1192 1.80262 26.9805 1.942 26.8088 1.942L23.8965 1.942C23.7239 1.942 23.5858 1.80262 23.5858 1.63088V0.405698C23.5858 0.181693 23.4046 0 23.1809 0C22.9577 0 22.7762 0.181693 22.7762 0.405698V1.44794V2.34801V2.83024L5.15261 2.83024L5.15261 2.34832V1.12314V0.406009C5.15261 0.181382 4.97107 0 4.74795 0C4.52421 0 4.34298 0.181382 4.34298 0.406009V1.63088C4.34298 1.80262 4.20426 1.942 4.03234 1.942L1.11934 1.942C0.948349 1.942 0.809013 1.80262 0.809013 1.63088L0.809013 0.406009C0.809013 0.181382 0.628405 0 0.404352 0C0.181229 0 0 0.181382 0 0.406009L0 2.34801L0 6.23169L0 10.116L0 14L0 17.8837L0 21.7683L0 25.652L0 27.594C0 27.818 0.181229 28 0.404352 28C0.628405 28 0.809013 27.818 0.809013 27.594L0.809013 26.3688C0.809013 26.1968 0.948349 26.0577 1.11934 26.0577H4.03265C4.20457 26.0577 4.34329 26.1968 4.34329 26.3688V27.594C4.34329 27.818 4.52452 28 4.74826 28C4.97138 28 5.15292 27.818 5.15292 27.594V25.652V25.3477L22.7762 25.3477V25.652V27.594C22.7762 27.8183 22.9577 27.9997 23.1809 27.9997C23.4046 27.9997 23.5858 27.8183 23.5858 27.594V26.3688C23.5858 26.1971 23.7239 26.0577 23.8965 26.0577H26.8092C26.9808 26.0577 27.1195 26.1971 27.1195 26.3688V27.594C27.1195 27.8183 27.3007 27.9997 27.5248 27.9997C27.7479 27.9997 27.9291 27.8183 27.9291 27.594V25.652V21.7683V17.8843V14.0003L27.9291 10.116V6.23169V2.3477V0.405698C27.9288 0.181693 27.7476 0 27.5245 0ZM4.34329 23.7103L4.34329 24.9355C4.34329 25.1072 4.20457 25.2466 4.03265 25.2466H1.11934C0.948349 25.2466 0.809013 25.1072 0.809013 24.9355L0.809013 22.4854C0.809013 22.3137 0.948349 22.1743 1.11934 22.1743H4.03265C4.20457 22.1743 4.34329 22.3137 4.34329 22.4854V23.7103ZM4.34329 21.0515C4.34329 21.2232 4.20457 21.3626 4.03265 21.3626H1.11934C0.948349 21.3626 0.809013 21.2229 0.809013 21.0515L0.809013 18.6014C0.809013 18.4294 0.948349 18.2903 1.11934 18.2903H4.03265C4.20457 18.2903 4.34329 18.4297 4.34329 18.6014L4.34329 21.0515ZM4.34329 17.1672C4.34329 17.3392 4.20457 17.4783 4.03265 17.4783H1.11934C0.948349 17.4783 0.809013 17.3392 0.809013 17.1672L0.809013 14.7171C0.809013 14.5454 0.948349 14.406 1.11934 14.406H4.03265C4.20457 14.406 4.34329 14.5454 4.34329 14.7171V17.1672ZM4.34329 13.2832C4.34329 13.4549 4.20457 13.5943 4.03265 13.5943H1.11934C0.948349 13.5943 0.809013 13.4549 0.809013 13.2832L0.809013 10.8331C0.809013 10.6614 0.948349 10.522 1.11934 10.522H4.03265C4.20457 10.522 4.34329 10.6614 4.34329 10.8331V13.2832ZM4.34329 9.39888C4.34329 9.57123 4.20457 9.70999 4.03265 9.70999H1.11934C0.948349 9.70999 0.809013 9.57123 0.809013 9.39888L0.809013 6.94882C0.809013 6.77708 0.948349 6.6377 1.11934 6.6377L4.03265 6.6377C4.20457 6.6377 4.34329 6.7774 4.34329 6.94882L4.34329 9.39888ZM4.34329 4.40014V5.51519C4.34329 5.68693 4.20457 5.82631 4.03265 5.82631L1.11934 5.82631C0.948349 5.82631 0.809013 5.68693 0.809013 5.51519L0.809013 3.06482C0.809013 2.89309 0.948349 2.75371 1.11934 2.75371L4.03265 2.75371C4.20457 2.75371 4.34329 2.89309 4.34329 3.06482V4.40014ZM22.7762 24.116V24.5074L5.15261 24.5074V24.116V23.7103L22.7762 23.7103V24.116ZM22.7762 3.99444V4.46797L5.15261 4.46797V3.99444V3.67057L22.7762 3.67057V3.99444ZM27.1192 24.9355C27.1192 25.1075 26.9805 25.2466 26.8088 25.2466H23.8965C23.7239 25.2466 23.5858 25.1075 23.5858 24.9355V23.7103V22.4851C23.5858 22.3131 23.7239 22.174 23.8965 22.174H26.8092C26.9808 22.174 27.1195 22.3131 27.1195 22.4851L27.1192 24.9355ZM27.1192 21.0512C27.1192 21.2232 26.9805 21.3623 26.8088 21.3623H23.8965C23.7239 21.3623 23.5858 21.2229 23.5858 21.0512V18.6011C23.5858 18.4294 23.7239 18.29 23.8965 18.29H26.8092C26.9808 18.29 27.1195 18.4297 27.1195 18.6011L27.1192 21.0512ZM27.1192 17.1675C27.1192 17.3392 26.9805 17.4786 26.8088 17.4786H23.8965C23.7239 17.4786 23.5858 17.3392 23.5858 17.1675V14.7174C23.5858 14.5454 23.7239 14.4063 23.8965 14.4063H26.8092C26.9808 14.4063 27.1195 14.5454 27.1195 14.7174L27.1192 17.1675ZM27.1192 13.2829C27.1192 13.4552 26.9805 13.594 26.8088 13.594H23.8965C23.7239 13.594 23.5858 13.4552 23.5858 13.2829L23.5858 10.8328C23.5858 10.6611 23.7239 10.5217 23.8965 10.5217H26.8092C26.9808 10.5217 27.1195 10.6611 27.1195 10.8328L27.1192 13.2829ZM27.1192 9.39919C27.1192 9.57092 26.9805 9.71031 26.8088 9.71031H23.8965C23.7239 9.71031 23.5858 9.57092 23.5858 9.39919V6.94882C23.5858 6.77708 23.7239 6.6377 23.8965 6.6377L26.8092 6.6377C26.9808 6.6377 27.1195 6.7774 27.1195 6.94882L27.1192 9.39919ZM27.1192 5.51488C27.1192 5.68693 26.9805 5.826 26.8088 5.826L23.8965 5.826C23.7239 5.826 23.5858 5.68693 23.5858 5.51488V4.39983V3.06482C23.5858 2.89309 23.7239 2.75371 23.8965 2.75371L26.8092 2.75371C26.9808 2.75371 27.1195 2.89309 27.1195 3.06482L27.1192 5.51488Z" fill="url(#paint1_linear_1_364)"/>
<defs>
<linearGradient id="paint0_linear_1_364" x1="0.382019" y1="-0.777763" x2="28.5222" y2="0.650157" gradientUnits="userSpaceOnUse">
<stop stop-color="white"/>
<stop offset="0.9999" stop-color="white"/>
<stop offset="1" stop-color="white"/>
</linearGradient>
<linearGradient id="paint1_linear_1_364" x1="-0.303721" y1="3.20224e-06" x2="30.5209" y2="4.52078" gradientUnits="userSpaceOnUse">
<stop stop-color="#C02C2C"/>
<stop offset="1" stop-color="#A80A0A"/>
</linearGradient>
</defs>
</svg>
