<svg width="24" height="25" viewBox="0 0 24 25" fill="none" xmlns="http://www.w3.org/2000/svg">
<path fill-rule="evenodd" clip-rule="evenodd" d="M11.2378 3.2991C10.6238 3.3801 9.86583 3.5541 8.78783 3.8031L7.55883 4.0871C6.64883 4.2971 6.02083 4.4431 5.54183 4.6071C5.07883 4.7661 4.81683 4.9221 4.61983 5.1201C4.42183 5.3171 4.26583 5.5791 4.10683 6.0421C3.94283 6.5211 3.79683 7.1481 3.58683 8.0591L3.30283 9.2871C3.05383 10.3661 2.87983 11.1241 2.79883 11.7381C2.71883 12.3361 2.73783 12.7411 2.84383 13.1091C2.94883 13.4771 3.14783 13.8301 3.53183 14.2951C3.92683 14.7731 4.47583 15.3241 5.25883 16.1071L7.08883 17.9371C8.44783 19.2961 9.41483 20.2611 10.2468 20.8951C11.0608 21.5171 11.6568 21.7501 12.2618 21.7501C12.8678 21.7501 13.4628 21.5171 14.2778 20.8951C15.1088 20.2611 16.0768 19.2951 17.4358 17.9361C18.7958 16.5761 19.7608 15.6091 20.3958 14.7781C21.0158 13.9631 21.2498 13.3681 21.2498 12.7621C21.2498 12.1571 21.0168 11.5621 20.3948 10.7471C19.7608 9.9151 18.7948 8.9471 17.4358 7.5881L15.6058 5.7581C14.8238 4.9761 14.2728 4.4271 13.7958 4.0321C13.3298 3.6481 12.9768 3.4491 12.6088 3.3441C12.2408 3.2381 11.8358 3.2201 11.2388 3.2991H11.2378ZM11.0418 1.8121C11.7588 1.7171 12.3878 1.7201 13.0218 1.9021C13.6568 2.0841 14.1918 2.4151 14.7498 2.8751C15.2898 3.3211 15.8898 3.9211 16.6408 4.6721L18.5368 6.5681C19.8468 7.8781 20.8848 8.9161 21.5868 9.8381C22.3108 10.7851 22.7498 11.6971 22.7498 12.7621C22.7498 13.8281 22.3108 14.7401 21.5878 15.6871C20.8848 16.6091 19.8478 17.6471 18.5368 18.9571L18.4568 19.0371C17.1468 20.3471 16.1088 21.3851 15.1868 22.0871C14.2398 22.8111 13.3268 23.2501 12.2618 23.2501C11.1968 23.2501 10.2848 22.8111 9.33683 22.0881C8.41583 21.3851 7.37783 20.3481 6.06683 19.0371L4.17283 17.1401C3.42283 16.3901 2.82183 15.7891 2.37583 15.2501C1.91583 14.6911 1.58483 14.1561 1.40283 13.5221C1.22083 12.8871 1.21783 12.2581 1.31283 11.5411C1.40383 10.8471 1.59583 10.0191 1.83383 8.9851L2.13383 7.6821C2.33383 6.8191 2.49583 6.1151 2.68883 5.5541C2.89083 4.9671 3.14383 4.4741 3.55983 4.0581C3.97583 3.6421 4.46983 3.3881 5.05583 3.1881C5.61683 2.9941 6.32083 2.8321 7.18383 2.6331L8.48683 2.3331C9.52083 2.0931 10.3488 1.9031 11.0428 1.8111L11.0418 1.8121ZM9.48983 8.4951C9.25538 8.26064 8.93739 8.12893 8.60583 8.12893C8.27426 8.12893 7.95628 8.26064 7.72183 8.4951C7.48738 8.72955 7.35566 9.04753 7.35566 9.3791C7.35566 9.71066 7.48738 10.0286 7.72183 10.2631C7.83792 10.3792 7.97573 10.4713 8.12741 10.5341C8.27909 10.5969 8.44165 10.6293 8.60583 10.6293C8.77 10.6293 8.93257 10.5969 9.08425 10.5341C9.23592 10.4713 9.37374 10.3792 9.48983 10.2631C9.60592 10.147 9.698 10.0092 9.76083 9.85751C9.82366 9.70584 9.85599 9.54327 9.85599 9.3791C9.85599 9.21492 9.82366 9.05236 9.76083 8.90068C9.698 8.749 9.60592 8.61118 9.48983 8.4951ZM6.66183 7.4351C6.91656 7.17693 7.21985 6.97169 7.55422 6.83122C7.8886 6.69074 8.24746 6.6178 8.61014 6.61658C8.97283 6.61537 9.33217 6.68591 9.66748 6.82414C10.0028 6.96237 10.3074 7.16557 10.5639 7.42202C10.8204 7.67848 11.0236 7.98314 11.1618 8.31845C11.3 8.65376 11.3706 9.0131 11.3693 9.37578C11.3681 9.73846 11.2952 10.0973 11.1547 10.4317C11.0142 10.7661 10.809 11.0694 10.5508 11.3241C10.035 11.8399 9.33534 12.1297 8.60583 12.1297C7.87631 12.1297 7.17667 11.8399 6.66083 11.3241C6.14498 10.8083 5.85518 10.1086 5.85518 9.3791C5.85518 8.64958 6.14498 7.94994 6.66083 7.4341L6.66183 7.4351ZM19.0498 11.4901C19.1903 11.6307 19.2692 11.8213 19.2692 12.0201C19.2692 12.2188 19.1903 12.4095 19.0498 12.5501L12.0708 19.5301C11.9287 19.6626 11.7406 19.7347 11.5463 19.7313C11.352 19.7278 11.1666 19.6491 11.0292 19.5117C10.8918 19.3743 10.8131 19.1889 10.8097 18.9946C10.8062 18.8003 10.8783 18.6123 11.0108 18.4701L17.9888 11.4901C18.0585 11.4204 18.1412 11.3651 18.2322 11.3274C18.3232 11.2897 18.4208 11.2703 18.5193 11.2703C18.6179 11.2703 18.7154 11.2897 18.8065 11.3274C18.8975 11.3651 18.9802 11.4204 19.0498 11.4901Z" fill="#FF602E"/>
</svg>
