<svg width="20" height="20" viewBox="0 0 20 20" fill="none" xmlns="http://www.w3.org/2000/svg">
<path d="M2.5 8.33341C2.5 5.19091 2.5 3.61925 3.47667 2.64341C4.4525 1.66675 6.02417 1.66675 9.16667 1.66675H10.8333C13.9758 1.66675 15.5475 1.66675 16.5233 2.64341C17.5 3.61925 17.5 5.19091 17.5 8.33341V11.6667C17.5 14.8092 17.5 16.3809 16.5233 17.3567C15.5475 18.3334 13.9758 18.3334 10.8333 18.3334H9.16667C6.02417 18.3334 4.4525 18.3334 3.47667 17.3567C2.5 16.3809 2.5 14.8092 2.5 11.6667V8.33341Z" stroke="#1C1C1C" stroke-width="1.25"/>
<path d="M6.6665 8.3335H13.3332M6.6665 11.6668H10.8332" stroke="#1C1C1C" stroke-width="1.25" stroke-linecap="round"/>
</svg>
