<svg width="20" height="20" viewBox="0 0 20 20" fill="none" xmlns="http://www.w3.org/2000/svg">
<path d="M2.5 8.33317C2.5 5.19067 2.5 3.619 3.47667 2.64317C4.4525 1.6665 6.02417 1.6665 9.16667 1.6665H10.8333C13.9758 1.6665 15.5475 1.6665 16.5233 2.64317C17.5 3.619 17.5 5.19067 17.5 8.33317V11.6665C17.5 14.809 17.5 16.3807 16.5233 17.3565C15.5475 18.3332 13.9758 18.3332 10.8333 18.3332H9.16667C6.02417 18.3332 4.4525 18.3332 3.47667 17.3565C2.5 16.3807 2.5 14.809 2.5 11.6665V8.33317Z" stroke="#1C1C1C" stroke-width="1.25"/>
<path d="M6.66699 8.33301H13.3337M6.66699 11.6663H10.8337" stroke="#1C1C1C" stroke-width="1.25" stroke-linecap="round"/>
</svg>
