<svg width="48" height="48" viewBox="0 0 48 48" fill="none" xmlns="http://www.w3.org/2000/svg">
<path d="M10.5 6C10.1022 6 9.72064 6.15804 9.43934 6.43934C9.15804 6.72064 9 7.10218 9 7.5C9 7.89782 9.15804 8.27936 9.43934 8.56066C9.72064 8.84196 10.1022 9 10.5 9H37.5C37.8978 9 38.2794 8.84196 38.5607 8.56066C38.842 8.27936 39 7.89782 39 7.5C39 7.10218 38.842 6.72064 38.5607 6.43934C38.2794 6.15804 37.8978 6 37.5 6H10.5ZM25.062 12.438C24.9227 12.2983 24.7571 12.1875 24.5749 12.1119C24.3927 12.0362 24.1973 11.9973 24 11.9973C23.8027 11.9973 23.6073 12.0362 23.4251 12.1119C23.2429 12.1875 23.0773 12.2983 22.938 12.438L12.438 22.938C12.2985 23.0775 12.1879 23.243 12.1124 23.4252C12.037 23.6075 11.9981 23.8028 11.9981 24C11.9981 24.1972 12.037 24.3925 12.1124 24.5748C12.1879 24.757 12.2985 24.9225 12.438 25.062C12.5775 25.2015 12.743 25.3121 12.9252 25.3876C13.1075 25.463 13.3028 25.5019 13.5 25.5019C13.6972 25.5019 13.8925 25.463 14.0748 25.3876C14.257 25.3121 14.4225 25.2015 14.562 25.062L22.5 17.121V40.5C22.5 40.8978 22.658 41.2794 22.9393 41.5607C23.2206 41.842 23.6022 42 24 42C24.3978 42 24.7794 41.842 25.0607 41.5607C25.342 41.2794 25.5 40.8978 25.5 40.5V17.121L33.438 25.062C33.7197 25.3437 34.1017 25.5019 34.5 25.5019C34.8983 25.5019 35.2803 25.3437 35.562 25.062C35.8437 24.7803 36.0019 24.3983 36.0019 24C36.0019 23.6017 35.8437 23.2197 35.562 22.938L25.062 12.438Z" fill="#399AF3"/>
</svg>
